<svg xmlns="http://www.w3.org/2000/svg" viewBox="0 0 837.87 523.45"><defs><style>.cls-1{fill:#4490ce;}.cls-2{fill:#2b63ac;}.cls-3{fill:#d7e6f0;}</style></defs><g id="Capa_2" data-name="Capa 2"><g id="Capa_1-2" data-name="Capa 1"><path class="cls-1" d="M345.18,18l0,.07c-3-2.62-5.71-1-8.46.44-8.53-1.74-16.61-1.13-23.76,4.5-4,3.4-3.48-3.2-9.41,2.8-7.27,5.58-9.94,7.35-10.33,17.34-1.33,1.83-5.41,2.29-4.1,5.17s4-.68,6.17,0c-1,5.7,1.21,10.35-6.45,11.32-4.46,2-13.17,3.81-14.63,8.76,4.48,2.35,13.27-5.34,18.44-6.85,3.48-1.82,8.44-.59,8.23,2.59-.74,6.08,7,8,10.13,3.64,3.68-3.47,6.81-7.72,12.33-8.53.15,1.32.24,2.65,1.27,3.65,6.79,7.85-12.45,3.77-12.62,10.56-.12,1.89,1.37,2,2.65,2.24,1.82,3.39,4.07,9.81,8.71,6.69,20.4-8.49,12,2.42,20.07-.24,4.93-4.73,22.28-8.41,16.94-17-3.62-2.46-2.93-9.36-8.57-8.52-2.4.43-9.78.94-7.14,4.89-14.3,8-9.9-11.1-21.08-2.55.25-1.1.22-2.37.78-3.28,8.86-11.7-15.45-1.38-17.05-13,6.12-3.23,13.54,1.07,19.88-2.65-.56,2.4-.91,6.17,2.47,6.28,3.69-.64-2.13-6.87,5.25-7.93C345,37.58,344.7,28.16,347,20.7c2.26,1.49,3.88.77,5.06-1.46,7.44,4.87,11.9-7.18,19.87-3.91,2.37,1.3,7.77-4.83,7.11-6.87-.54-2.71,1.74-7-1.33-7.74-2.06-.49-2.1,4.36-3.08,6.8-7.74,2.24-13.73,8.07-21.66,10-6.1-4.27-7.59,9.3-14.5,2.41C340.44,18.39,343,18.84,345.18,18Z"/><path class="cls-1" d="M273.71,429.83c-3.24,2.14,1.21,4.8,2.84,2.2,1-2.68-1.73-1.53-2.64-2.29-.06-4.17-4.91-4.11-6.28-7.1-.73-1.6-1.6-2.14-2.85-.57C261.81,425.3,270.84,429.42,273.71,429.83Z"/><path class="cls-1" d="M515.14,60.22c14.34,13-6.86,7.8-7,12.48C511.65,77,522.48,75.62,525,70c1.11-1.86-1-2.4-2.2-3.12-.84-4.68-2.65-8.5-8.08-9.12-2.56-1.58-5.09-6-7.73-.08-1.93.17-2.43-1.37-3.21-2.63-.34-2.49-2.72-2-3,.44-1.62,4.88,4.9,4.65,6.12,8.48,2.2,3.59,5.45,1.81,4.28-1.87Z"/><path class="cls-1" d="M257.46,376.34l0,0c5.47,2.44,20.13-14.58,11.27-12.8-12.9,7-12.65-24.94-26.47-18.29,1-3.2,4.95-2.75,3.15-5.48-2.91-2.1-5.62,3.16-7.7,4.78-3.22-.05-7.15-1.31-9.39,1.17-2.76,4.14-9.76,12.9-3.68,16.89,3,1.28,4.38-1.17,5.61-3.46s1.67-4.77,4.3-5.83c-1.21,6.19,4.07,7.75,4.05,11.45.35,3.27-2.22,5-3.78,7.3-3.45,3.89,3.46,9.53,6.41,5,4.49-9.2,7.08,4,14.27.2C256.73,378.29,257.15,377.44,257.46,376.34Z"/><path class="cls-1" d="M236.11,87.28c-2-9-10.29,2-.85.85.37,3.28,1.29,5.44,4.75,2.3,2.22-2,6.45.26,7.6-2.58.5-5.22-8.89-5.2-.18-10.38-.38,4.24,4.71,6.48,3.95,10.64-1.88,4.83,4,1.81,6.5,2.36,1.21,4.78-1.26,11.63,2.78,15.06,2.4,3,7.39,10.64,10.21,3.88,1.53-5.66-4.21-11.56,4.68-12.69,8.92,0,16.06,10.51,23.3,1.27,2.56-3.42,8.24-7.63,6.93-12.31-1.63-5-11.63-9.56-16.85-11-2.77-7.35-15.36,7.44-21.39,7-4.6-7.66,1.74-9.76-9.07-3.19-1.88-6-1.64,2.42-10.2-2.23,1.61-10,13.7-7.52,17.12-15.21-.51-5.21-9.74-2-10.34,2.46-5.89-.1-8.14,4.32-10.56,8.52-3.36,1.78-6.17,3.76-3,8C241.63,83.9,239.61,86.13,236.11,87.28Z"/><path class="cls-1" d="M505.18,20.47c3.3,7.46,11.4-.35,2.7-2.3,1.39-6.47-8.13-2.68-9.3,1.32-2.41-.58-3.94-2.43-5.35-4.17-2.16-3.21-8.43-2.51-7.79,1.79,1,6,8.53,1.1,10.44,6.55-4.31,1-8.7-2.15-13.32.72,5.42,1.7,13.63,7.46,16.66,1.43C504.21,27.39,503,22,505.18,20.47Z"/><path class="cls-1" d="M448.27,5.8c-5.67-4.66-8.54,4.94-.82,2.59,2.33.92,3.32,2.33,2.41,5-3.11,7.57,9.95,4.2,7.31-1.73,9.5-1,4.72,11.36,9.95,8.64,2.7-3.81-4.33-5.76-1.43-10.18C464.1,4.39,453.13,6.52,448.27,5.8Z"/><path class="cls-1" d="M553.47,95.57l.29,0c-3.48-.41-2.8-3.67-3.84-5.71-4.06-9.91-11.73,6.68-12.56,9.94,5.24,16.6-3.34,18.74,16.9,13.68,5.28-.89,8.63-7.93,2.1-9.43-3.27-2.88,4.34-4.22,4.61-7.58,5.21,5.75,8.93-3,13.09-1.94,1.84,2.15,1.69,4.66.33,7-2.23,4-4.6-3.29-7-.34-.5,5.53,19.21,13.52,12.73,18.22-1.4,1-2,2.78.51,3.1,9.71,5.52-5.19,9.33,21.89,24.42a2.77,2.77,0,0,0,2.35.46c6-4.56,6.32,5.23,9.28.11-.43-4.68,4.94-11.64,5.27-3.27,3.55,10.27-1.59,30.34,12.17,32.77,6,.78,22.05-9,18.84-16.06-3.49-1.81-4.36,3.76-7.46,4.41-3.55,4.45-9-.51-8.25-5.18,1.46-3.62,7.54-4.31,10.23-1.72,6.49,3.48-5-28.28-10.4-25.85-1.93-6.46-1.74-7.64-8-4,.38-2.59.85-6.51-3.38-4.14-2.67,2,.67,3.24.67,4.94-5.72,5.44,9.8,18,1,22.41-3.06.7-5.21-38.31-11.41-23.73-1.36,2.9-.06,9.37-3.76,9.91-3.54-2.24,1.41-9.25-5.86-8.67-9.82-6.32-25.09-13.82-25.93-26.67,0-12.65,15.65-22,7.19-34.28.81-4.27-2.09-3.62-4.5-3.76-.4-7-13.56-8.31-13.92-1.17-3.9,1.2-3.57,9.35-10.21,6.27A5.66,5.66,0,0,0,554.82,72C553.63,82.31,563.18,85.77,553.47,95.57Z"/><path class="cls-1" d="M621.45,413.42c-7.23,2.75-9.45,10.2-14.23,15.25,1,9.91,14.64-13.54,15.36-16l-.49-.47Z"/><path class="cls-1" d="M279,56.25c.56,2.51,1.55,4.23,4.3,2.06,1.82-2.14,7.78-1.39,6.5-5.29-2.78-3.81-6.9,3.45-10.7,3.12-.08-5.49-5.33-9.7-2.92-16.67C263.93,43.09,270.69,55.82,279,56.25Z"/><path class="cls-1" d="M478.78,32.63c7.93,2.12,23.37,7.71,30.18,3.83.15-4.63-26.77-5.44-32.1-8C474.85,30,476.14,33.67,478.78,32.63Z"/><path class="cls-1" d="M510.18,108.86c3.38,5,9.22,1.61,13.53,4,2.18,1.2,3.46-2.65,5.78-3-3.38,6-3.64,12.33-2.19,18.87-2.64-1.55-6-.4-8.53-2.34-3.46-5.7-19.49,4.54-11,7.47,12.2,3.29,20,16.18,31,2.42,3.29-3.23.84-3.75-1.35-4.9-3.22-8.89-.24-23.89-9.81-27.21-12.31,1.34-10.38-7.93-14.63-3.86C511,102.73,503.15,107.79,510.18,108.86Z"/><path class="cls-1" d="M420.26,373.39c.48-5.56-4.43-9.49-4.54-15-.52-3-7.07-2.52-7.23.9-.71,7.36-7.3,5.19-12,6.53-1.42,1.26-4.94,2.72-.61,4.86-.58,2.23-4.62,3.87-1.16,6.8-.53,3-1,5.71,2.67,7.41,4.14,1.94,6.28-1.4,8.35-2.51,6.67,3.53,2.63,8.84,2.81,13.55.15,2.2-.71,5.44,2.94,4.75,3-.64,3.12,3.63.75,4.65-3.7,3.13-10.22-2.39-11.24,4-.65,3.15-1.58,6.55,2,8.43,32,18,44.68,8.18,17.92-20.21-7.94-.11-4.84-8.14-5.42-13.67,5.91,2.25,11.09,4.85,11,12.59,1.43-5.29,1.07-10.22,1-15.13C432.57,374.59,425.12,374.31,420.26,373.39Z"/><path class="cls-1" d="M220.37,133.35c.53-12.48,12.94.72,16.65,4.88-.63,1.71-3.32,3.17-1.27,5.19,4,2.08,7.78-3.88,11.45-5.31,5.8-3.29,3.52,12.15,5.19,15.61-.65,3.48,2.92,4.41,5,2,3.89-1.34.79-29.87-4.14-27.43,2.61-3.18,15-13.49,5.92-15.2-2.92,0-5.21-1.37-7-4-2.2-3.18-4.7-3.1-6.16.76-1.38,5.78-9,7.08-10.15,12.43-.14,5.69-4.71,2.62-7,3.38s-1.28-2.34-1.43-3.76c-.21-1.9-1.44-1.38-2.53-1.37-2.51-6.94,8.23-2.86,9-8.11-1.22-8.51-14.29-3.2-18.1,2.25-3.64-2.69-7.06,6.47-6.06,9.73.28,4.69-3.69,7.7-4.73,11.89C201.2,146.68,226.79,141.51,220.37,133.35Z"/><path class="cls-1" d="M568.5,166.55c-5.14-3.8-5.34,6.63-.13,6.71.16,2.77,1,4.66,4.34,3.45a3,3,0,0,1,3.57,1.06c7.17,6.95,15.94-4.7,23.82-5.76,4-1.09,4.44-4.79,2.9-8-.39-3.32-13.54,4.73-16.33,5.37-1.95,3.08-4.62-.51-2.22-2.42,2.89-2.11,2-4.06-.09-6.45-2,2.46-4.6,14-6.64,13.17-4.25-5.74,4.28-15.56,6.87-21.64l-7.89-2.73c2,4.78-1.4,4.75-4.05,5.53C562.34,158.56,584.24,158.76,568.5,166.55Z"/><path class="cls-1" d="M453.19,92c7.9-.12,10.32-11.75,17.55-11.17,4.39,3.65.62,10-4.17,10.57-11.18,6.83,9,6.62,11.83-1.73,4.43,4.14,14,.93,10.68,9.84-.85,11.24,10.56,2.06,15.59,1.07,4.1-.64,6-3.36,8.19-6.05,4.2-3.32.94-8.61-3.94-7.83-6.48.59-7.45-9.41-3-12.33-7.95-5-12.63,3.93-20.26,3.74-12.17,3.26-13.56-9.2-27,.75-.53-1.54-1-3.09-2.79-3.7,5.09-9.64-12.07-4.82-13.84.85-7.69-5-2.87,7.74-8.39,8-3.16.48-2-2.64-2.4-4.31-8.18-11.28-8.33,5.1-5.46,10.69,1.23,3.18,4.11,6.11,8.18,5.06C438.36,91.75,456.79,99.8,453.19,92Z"/><path class="cls-1" d="M452.43,358.67c.13,2.26.26,4.51.4,6.77-8.3-3.06-17.34,7.36-9.36,13.79a3.12,3.12,0,0,1,.44,4.15c-5.09,2.71-15.3-6.69-14.68,5.69-.15,3.05,2.06,2.25,3.83,1.48,4.78.45,11.05,5.71,15,8.88,4.43,4,12-.07,17.27-.49,18.93-5.67-8.05-22.37,2.41-23.38,5.59,1.16,19.32-4.84,15.08,5.4-2.65,10.53,11.36,7.51,17,5.12,13.45-4.09,6.59-18.62,3.13-27.71-2.25-10.48-23.22-.65-25.78,5.39,3.68,2.08,10.06-1.82,11.63,2.27-.08,1.68-2,1.3-3.31,1.33-6.62-1.49-16.19,3.68-21.06-1l0,0c5.8-2.39-7-4.28.59-7,5.91-.56,9.06-9.37,1.7-9.57a2.76,2.76,0,0,1-2.71-1c4.2.19,3.86-3.69,5.48-5.91a5.72,5.72,0,0,0-7.57-8.56c-10.29,7.17-13-3.68-20.39-2.86-5.19,4.8,2.77,12.93-2.2,17.5C430.84,360,447.36,355.72,452.43,358.67Z"/><path class="cls-1" d="M529.08,46.8c-2,4.34,7.8,21.66,12.82,20.91,2.46,3.87,5.14-.35,8.06-1.1,8.62-2.24,11.06-7.49,7.1-15.14-3.31-15.9-4.95-4.94-11.61-12.22-.3-.84-.91-1.51-1.88-1.09-5,2.16-9.28-1-11.1-4-3.19-4.29-15.3-13-17.73-5.71-4.3-4.61-8.52,4.86-2.15,4.41-.06,5.57,6.94,4,9.59,7.73C524.38,42.78,526.22,45.37,529.08,46.8Z"/><path class="cls-1" d="M472.21,149.84c4.71-2.53,12.09-3.67,13.21-10,22.13-16.54-17-9-26.06-11.93-4-.68-5.68,1.58-6.89,4.74-6.77,2.55-11.66-1.72-14.45,7-3.19,7.51,10.64,9.21.41,17.64-8.92,10.51,15.84,12.35,21.31,10.6,2.82-3.29,18.39-5,16.13,1.4-3.51,7.45,5.23,9.34,10.05,11.58,12.17,6.18,20.23-4.22,21.39-15.76,4.83-7.44,2.77-12-6.24-14-2.39-4.45,3-13.4-3.83-14.25-1.2.52-.93,1.65-.7,2.58,1.91,3.87-3.35,11.19,2.74,12-.7,3.48-2.74,5.3-6.38,5.15C494.5,146.11,477.92,153.92,472.21,149.84Z"/><path class="cls-1" d="M568.82,368c-3.1,2.16-3.92,6.26-7.47,8.24-2,1.1-4.51,2.73-2.59,6.41s3.69,5.07,8,4.62c5.37-.55,9.88-3.84,15.28-3.9,5,1.25,7.23-4.81,3.72-8.14-4.92-4-1.33-9.37-2.5-14.46-2.73-9.88,23.79-6,3.67-16.34-7-4.46,8.48-4.2,9.62-8.81,3.74-8.68-15.07.89-18.27,2.43-1.19-5-5.75-3.8-8.85-4.07C565,334.09,565.4,364.24,568.82,368Z"/><path class="cls-1" d="M182.47,376.38c3.87.07,9.28-1,5.16,5.09-2.44,4.95,7.32.68,6,6.63,0,1.27,1.1,1.94,2.15,2.49,4,20.58,20,1,3.59-1.29,5.57-6.18-3.18-12-1.89-18.73-.13-2.67,3-3.36,3.32-.55.36.93.4,2.32,1.06,2.74,2.27,1.45,0,9.55,6.61,4.62.18-.13.71,0,.94.2,3.57,2.74,4,1.36,3.33-2.31-.43-2.35,2.41-7.1-.81-8.28-8.61-1.29-3.42-14.92-12.47-14.64-5.85.17-6.44-3.88-7.55-7.74-1.94-4.59.58-13.19-7.17-10.33-4,1-2.78,3.9-3.37,6.23-4.91,3.54-11.6,1.56-16.22,6.29-3.81,4.81,6.86,17.14,9.39,22.49-.05,7.14,6.53,3.36,9.9,1.26,3-2.66,5.56,2.13,1.48,2.82-2.05.31-2.95,1.41-3.63,3.23Z"/><path class="cls-1" d="M394,320.6c-.17,1.57-1.71,3.45,1,4.35.95,3.66-1,8.2,3.44,11.08,1.05-4.29-3.07-8.84,1.25-11.66-2.87,17.62,22.82,19.15,27.64,3.94,1.07,6.84-3,10.28-7.68,13.56,6.16,2.3,8-6,11.61-8.52,4.17-2.61,3.8-5.85,1.86-8.92-5.24-4.71-4.78-21.12-7.9-21.18-11.11,3-24.81.44-31.18,12.56C393.07,317.27,391.77,319,394,320.6Z"/><path class="cls-1" d="M506.76,393.94c-5.52,4.95-1.56,17.06,5.76,15.19,2.37,3,3.35,7.54,7.94,8.86,1.45,4.26,30.55-25.39,25.35-26.55-5.08-2.8-10,5.77-15.75,5.34.75-8.32,13.4-15.55,9.87-24-1.09-2.11-2.44.75-3.81.39.07-2.84-1.52-2.6-3.18-1.54C527.63,377.32,501.88,385.75,506.76,393.94Z"/><path class="cls-1" d="M519.11,341.81c4.24,7.18,4,17.18,11.73,22.19,8.35,7.17,20.37,2.39,21.89-8.85,3-9.12-8.45-18.64-1.67-25.84,10.16-12.95-17.16-13.5-24.54-17-2-.63-3.9.31-4.72,2.62-.75,2.13-.55,3.91,1.49,5.22,6,3.45,1.79,14.09-4.25,17C517.41,338,516.3,340.31,519.11,341.81Z"/><path class="cls-1" d="M366.85,446.94c30.11,26.92,17.48,1,31.41,8.75,12.23,10.94,25.94-12.17,22-21.83-4,1.31,0,6.34-7.26,2.45-7.26-2.73-14.82-4.69-21.68-8.49-2.5-1.38-7.53,1.61-7.39-4.32-6.79-.33-4,12.38-11.45,8.93C361.11,430.07,362.9,441.89,366.85,446.94Z"/><path class="cls-1" d="M254.41,165.67c1.49-8.58-9.66-5.45-14.39-9.72-12.57-5.65-14,11.78-18.73,19.24-4,13.26,7,8.22,13.28,12.35C244.27,199.58,253.4,172.54,254.41,165.67Z"/><path class="cls-1" d="M443.17,427c24.31-25.66,6.84,20,22,14,5.59-4.62,15.19-9.63,16.86-16.64-1.93-2.64-5.08,0-6.8,1.47-2.57,2.91-11.84,8.79-5.87.67,4.09-4.79,10.08-6.85,14.91-10.57,8.9-5.14-.55-17.91-7.69-11.28-4.51,3.41-9.07,8.66-15.36,2.53C456.91,404.32,427.53,432.48,443.17,427Z"/><path class="cls-1" d="M264.38,405.1C265.51,390.52,247,401,248.23,389c-1.14-9-9-1.91-12.3,1.82-8,5.36-6.42,21.54,4.38,21.17,6.82-1.19,7.11-.84,7.2,6.18-.83,5.21,8,7.79,9,2C258.85,415.2,265.81,410.77,264.38,405.1Z"/><path class="cls-1" d="M323.36,384.14c.9-1.87-1.7-3.62.42-4.43,1.77-.69,4.21-2,5.67-.75,2.24,2,3.71,4.5,7.42,3.64,4.22-1,2.14-5.12,3.89-7,2.4-2.55.66-3.41-1.07-4.51-6.17-2.95-5.71-11.27-12.51-13.43-14.22-6.76-1.5,18.86-16.24,12.34C302.21,368,320.91,382.71,323.36,384.14Z"/><path class="cls-1" d="M389.35,406.15c.18-6.58-11.14-8.81-7.58-15.91,5.46-12.27-12.26-7.91-18.55-5.76-15.64,7.41,15.81,9.64,14.23,26.8C378.75,418.23,390,412.26,389.35,406.15Z"/><path class="cls-1" d="M432.12,453.52c8-1.35,19.83,3.28,25.79-2.54,3.23-14.94-17-10.05-25.84-10.9C423.06,439.6,424,454.22,432.12,453.52Z"/><path class="cls-1" d="M224.45,428.34c16.82-2.65,4.24-12-.09-20.15-1.33-4.77-2.86-4.95-6.62-1.71-3.88,1.3-7,2.36-6.58,7,.79,2.5-1.72,3.13-3,1.21-1.21-1.18-2.47-4.27-4.51-2.83-.38,4.56,6,9.54,9.54,12.72,7.89,5.68,3.23-4.12,7.1-5.55C227.83,420.38,215.51,428.94,224.45,428.34Z"/><path class="cls-1" d="M428.11,29.55c4.55-.18,16.37,1.77,11.8-5-1.69-1.72-2.53-3.25-2.05-5.67.42-2.11-.95-3.06-2.59-1.85-10.83,7.1-27-2.44-36.23,6.55.17,3.36,4.79,5.08,7,2.2,1.19-1.06,2.13-.42,2.87.67C413.23,32.34,422.48,29.39,428.11,29.55Z"/><path class="cls-1" d="M597.33,101.1c8.17-2.59-1.16,8.44,10.72,9.19,1.78.36,3.62.19,5,1.82,3.77,3.94,6.48-5.94.86-4.27-11.85,1.89-2-5.85-4.19-11-4.68-1.5-13.47-20.73-16.31-12.11C593.46,89.25,590.36,101.38,597.33,101.1Z"/><path class="cls-1" d="M380.42,353.9c-1.25-8.49-9.63-12.34-13.22-19.52-1-2.27-8.6-2.59-9.68-.93-1.94,3,.66,4.81,2.16,6.87C364.65,345.2,375.44,370,380.42,353.9Z"/><path class="cls-1" d="M618.35,177.69c-.46-17.09-12.13-7.34-17.61-.76-.46,4.8,6.86,5.76,5.29,11.37a2.37,2.37,0,0,0,1.7,2.74c1.47.28,2-1,2.46-2C611.94,184.46,619.3,183.22,618.35,177.69Z"/><path class="cls-1" d="M4.56,284.57C1.52,264,7.9,240,2.58,221.5c-5.34,3.92-.83,40.78-.13,49.6C3.42,276.63-2,280.39,4.56,284.57Z"/><path class="cls-1" d="M370.68,410.35c1.78-4.4-11.57-13-7.76-5.13-.64,5.11-4.27,4.88-.33,10.83C365,418.59,371.75,414.33,370.68,410.35Z"/><path class="cls-1" d="M387.83,0c-6.31.28-2.73,5-3.47,7.48-1.74,10.61,10.69,1.63,10.84-3.77C394.44-.8,390.08,1.45,387.83,0Z"/><path class="cls-1" d="M645,373.47c8.49-4-1.13-6,4-11.34,1.5-1.73,2.38-6.65-.46-7.24-3.62,1.91-1.22,5.3-8.51,6.46C646.56,365.13,643.38,367.21,645,373.47Z"/><path class="cls-1" d="M503.06,67.74c-1.38-4.32-6.83-5.17-8.58-9.51-.63-1.14-1.16-2.72-2.88-1.73C485.57,59.72,501.07,74.33,503.06,67.74Z"/><path class="cls-1" d="M553.14,382.87c-1.89-2.62-2.15-6.18-3.78-9.18-1.17-2.46-6.87,1.62-5.55,3.34C546,381.19,548.59,392.18,553.14,382.87Z"/><path class="cls-1" d="M314,403.25c-6.6-4.61-7.34-19.44-16.36-19-1.83,1.75,3.39,5.06,4.33,6.88C305.7,392.58,311.26,409.78,314,403.25Z"/><path class="cls-1" d="M568.34,141.25c-10.59.6.18,8.17,5.48,5.48C583.84,143.14,572.73,141.7,568.34,141.25Z"/><path class="cls-1" d="M195.09,398.75c-6.37,1.54,6.59,16,8.38,8.85C203.72,406.14,196.77,398.73,195.09,398.75Z"/><path class="cls-1" d="M636.18,379.23c-4.53.09-10.17,7.22-3,8.59C637.67,389.34,643.42,377.85,636.18,379.23Z"/><path class="cls-1" d="M349.83,341c-3.12,2,1,5.32,1.29,7.81C351.53,354.61,361.4,349.11,349.83,341Z"/><path class="cls-1" d="M410.34,6.57c4.82,1.58,10-4.92,3-4.87C409.14.76,403.36,7.18,410.34,6.57Z"/><path class="cls-1" d="M626.12,108.35a11.76,11.76,0,0,0-5.78-5C615.18,103.09,626,116.36,626.12,108.35Z"/><path class="cls-1" d="M229.61,98.05c0-5.56-6.69-3.37-6.08,1C223.36,103.93,230.11,102,229.61,98.05Z"/><path class="cls-1" d="M472.69,13.83c12.35-.37-4.86-8.47-5-2.33C468.08,14.72,471,13.21,472.69,13.83Z"/><path class="cls-1" d="M276.93,418.9c-1.71-1.17-1.61-4.46-4.45-4.8C266.57,415.52,276.64,424.76,276.93,418.9Z"/><path class="cls-1" d="M237,76.92c.67-5.67-4.5-.59-4.93,2.24C231.67,83,237.13,81.48,237,76.92Z"/><path class="cls-1" d="M471.38,22.4c-2.86.41-2.56,4.64.34,4.34C474.67,26.85,474.09,22.32,471.38,22.4Z"/><path class="cls-1" d="M206.62,106.07c-3.13-.2-5.58,5.68-1.78,6.1C207,111.82,210.66,106.12,206.62,106.07Z"/><path class="cls-1" d="M266.88,481.83c2.63-.15.66-5.68-1-6.81C263.34,476.06,264.66,481,266.88,481.83Z"/><path class="cls-1" d="M195.4,122c3.1-1.32,7.33-5.15,3.67-6.51C196.59,116.42,196.52,118.74,195.4,122Z"/><path class="cls-1" d="M360.72,10c.52-4.09-6.32.75-3,2.06C359.35,12.28,360.1,11.16,360.72,10Z"/><path class="cls-1" d="M1.45,212.24c-.55.37-.67,1.08-.1,1.39C2.4,213.77,2.27,212.54,1.45,212.24Z"/><path class="cls-1" d="M769.32,227.12l-.27.31.6.27C769.78,227.34,769.67,227.2,769.32,227.12Z"/><path class="cls-1" d="M238.8,455.51l-.56-.48c-.47.4,0,.52.31.81Z"/><path class="cls-2" d="M716.39,223.42s0,.08.06.06Z"/><path class="cls-2" d="M308,490.57c-33.11-10.46-8.6-22.59-25.77-14.49h.05c-5.78.51-12.57,3.61-4.33,9.18,4.57,2.43-.23,3.89-2.32,5.89a137.42,137.42,0,0,0,28.94,13.32C303.62,500.27,312.14,490.65,308,490.57Z"/><path class="cls-2" d="M793.58,294.53c10.2.87,22.52,3.25,31.61-2.08-21.65-.18-47.05,2.37-60.11-18.75-5-.62-12,4.9-11.39-5,7-2.68,10,6.11,7.06-10.43-2-6.14,2.61-11.73,1.14-17.68-1.62.65-2.93,3.15-4.77,1.4-3.7-5.36,11.61-9.6,7.4-14.31-1.8-2.94-5.56-1.66-7-4.56-1.82-3.68-5.27-4.56-9-4.58-4.38,1-20-3.22-17.79,4,6.28-2.86,20.22-6.58,17.83,4.87,7.46,22.13-14.35,4.06-13.39,22.81-.09,11.63-.12,23.26.19,34.88.66,9.3-11.69,3.5-17.31,5.18-2.61.06-4-.75-3.94-3.69,1.85-18.46-4.92-39.74,5.87-56.06l-5.47-.61c9.42-10.59-13.74-7.55-19.48-8.55-5,.11-2.5-7.46-8.4-7.4-6.33-1.65-15.86,6.59-17.08-3.69-1-6.64-6.9,7-9.68-1.67.28-5.62-7.68-20.09-1.31-22,.93,0,2.25.59,2.28-1s-1.38-1.57-2.55-1.75c-11.53-2.22-15.23,2.38-16.94,13.18,12.14-.47-2.82,30.83,9,26.5,46.15-17.4,74.24,51.86,25.23,66.58-8.05,1.43-31.18,7.31-33.18-3.53-8.57-6.67-18-15.62-16.7-27.33-.38-13.81-.23-27.63-.22-41.44,1.42-7.74,9.41-12.36,11.15-20.18-2.61-.51-7.7,5-9.08,1.25,3.94-6.3-1.08-10.64-3.57-15.38-4.7-3.44-9.28,13.47-10.61,17.16-9.95,23.17-23.81-23.12-41.09-2.61-4.26,3.84,4.5,6.15-.23,12-2-4.21-5.52-4.36-8.41-3.71-6,.81-.31,12.79-7.45,11.06-6.31-3.32-9.18,4.54-15,2.74-10.1-4.8-3.76-12.31-15.77-20.66-5.77,13.18,5.76,89.9-5.58,90.63-5-1.53-16.16,3.78-16.62-3.86,3.31-27.82-9-60.86,10.13-83.84,3.3-5.17,5.76-6,11.95-3.67,4-3.4,7.38-3.67,11.25-.49s7.66,1.76,11.2.1c9.28-3.86,2.79-15.66,4.49-23.22,1.48-5.68-1-7.51-7.2-7-7.63-2.14-15.32-4-23.34-3.73-.63,2.29.37,5.47-3.32,6.09,0,2.42,1.49,2.95,3.61,3,2.45.06,5.08-.13,6.72,2.35,6-2.52,6.2-2.33,6,4.55.56,7.56-6.23,3-10.92,5.09-.66,3.75-.95,7.8-6.23,7.91-8.72,4.38-21.84-1.64-28.57,6.81,1,5.29,8.67,3.83,9.91,9.89-20.21-12-9.26,5-19,.89-1.75,1.3-2.32,4.07-5.45,4.68,9-17.16-1.28-8.59-3.51-23-6.47,3.8-10.55,27.78-18.3,22-2.32,1.39-4.16-1.47-6.66-.55-20.54,3.85-16.23,2.23-33.31-7.1-2.36-1.56-3.16-3.39-2.24-6.35,1.41-11.39,11-3.24,18-7.26,6.27-3.39-26.93-.36-29.9-1.36,4.69,6.08,1.8,5.46-1.18,11.9-7,15.06-29.24,10.91-30.59-4.71,1.94-2.85-5.23-16,1.85-9.79,4.41,5.83,13.23,12.94,15.41,1.89-2.2-4.11-2.39-8.75-4.82-12.89-7-9.82-7.06-11-3.14-22.88-.62-2.5.7-3.48,2.7-3.79,7.57-1.17,9-7.45,10.08-13.13,3.54-8.77-12.45-13.55-6.38-21.73,3.34-2.42,5.35-6.33,9.31-8,.29-5.29,1-5.68,8.73-5-.28-2.25,1.36-2.89,2.87-4,3.59-3,6.59-13.35,0-14.17-2.52-.33-4.76-1.29-4.68-4.13,2-5.51,13.92-4,19-7.25,2-.5,4.71-1,2.33-4.18-6.32,1.58-48.4,20.29-34.93,1.74-7.8.91-1.8,8.22-19.49,13.79,4.8,4.92,21.19,3.09,13.48,12.79l.67,1.16c2.74-1.68,9.58-.06,5.44,3.78-3.78,2.58-5.13,7.28-8.74,10,.17,2.72,3,6.24-1,7.88-5,1.84-5.15-4.84-8.17-7.12a4.38,4.38,0,0,1-3.21.63c-1.54,20.18,0,17.92,8.7,36.89,3.94,7.2-7.52,5.44-4.33,10.5,6.63,10.67-17,7.29-14.78,17.55-4-.56-13.44,2.15-7.25,6.88,3.59,3.09-1,5.29.26,7.76,17.18,1.25,22.59,12.55,20.14,26.67,42.07,2.55,48,63.5,5.11,70.08-20.4,7.34-27.1-15.2-25.33,12.38,1.25,16.09-21.86,15.38-20.87,0,0-11.31.17-22.63-.08-33.93-3.71-24,10.16-46.5,35.2-48.94-.62-30.42-34.77-22.27-19.93,3.56-2.67-.08-3.46,3.23-5.52,3.45-3.53.42-2.45-3.32-3.69-5.46-3.53-1.09-2.15-13.88-1-17.31-11.6-15.86-22.25-9.95-33.72,2.33-3.81,2.57-9-2.33-13.24,1-1,.69-1.41-.44-1.49-1.26-2-3.21-1.3-5,2-7.24-3.82-5.17,2.56-8,5.94-10.92,4.75-2.75.62-6.72-.35-10.4-1.41-5-1.75-5.12-5.8-2.08-3.36,5.25-10.17,4.3-8.33-2.75-11.61,7-19.34,17.6-12.19,30.55,2.64,11.45,14.24,3.36,21.59,8.55-6.21,4.8-15.8.52-23.18,4.32-7.87,3.05-1.52-9.56-8.6-8.23-8.12,1.73-.69-12.74-9.4-8.49-3.27,2.09-6.86-3.59-9.77-.49,7.41,6.91,22.58,10.52,16,23.76-.7,5.07-8.09,12.41-12.66,7.57-4-3.09,0-8.6,4.38-6.1,12.92-1.66-3.94-13.87-8.85-16.27-9.1-6.51-6.08-2.07-5.84,5.32.72,7.75-11.11,1.47-11.82-2.43-1.52-6.41-5.7-10.62-9.76-15.11-2.46-2.07.39-9.34-3.29-8.89-8.31,1-4.3,11.38-7.45,16.41-7.42,10.07-3.37-17.51-4.41-21.1-.05-2.63.81-4.94,3.4-5.17,4.49-.27.64,5,3.13,6.51,2.41.36,3.33-3,4.79-4.4-4.21-3.37-4.21-3.37.86-8.7,1.62-2.33.88-7.42,5.13-6.37,2.88,5.48,2.53,21.31-.13,28,1.32,2.85,3.64,3.11,6.27,2.29,3.46,0-2.11-9.57-1.15-13.42-6.78-16.06,15.38-25.12,3-29.05-5-.74-21.19-9.17-16.92,2.2,1,2.17,1,5-1.61,5.35-11.35,2.87-11.9,15.57-19,22.77-.64,3.25-2.05,14.46-4.53,15.54-6.9,2.49-20.8,17-13.73,22.91,3.41,1.58,1.81-2.12,3-2.94,1.3-4.92,4.48-9.21,6.78-13.92,5.93-8,6.05,12.07,7.62,15.22,3.77,10.5-6.84-1.77-8.85,14.75-4.24-3-4.89-9.3-9.69-9.5-3.78,16-.68,37.15-1.44,54.84.44,18.06-20.64,11.09-32,12.29,2,8.66,15.86-1.27,22.35,4.27.94.5,1.85.82,2.63-.22,3.44-4.59,10.17-2.67,13.77-7,.54-.66,1.85-.69,2.18.1,4.81,5.3,3.19,12.21,4.13,19,6.39.85,7.72,4.15,4.92,9.76-2.1,4.23-4.47,6.79-9.44,6.19-3.15-.93-4.21,4.67-.74,4,18.74-1.84,22.21-2.83,15.44-22.57-5.34-4.14-10.74-9-7-16.67,3.31.53,2.65,12.67,6,8.05,1.62-1.93,3.46,3,6.31,1.79,8.17-.67,8.53-.49,8.25,7.91-1,5.11,6.54,4.55,3.64.51-5.77-3.75,11.31-10.34,12.94-4.16,1.11,3.42,5.59,1.87,3.66-1.47-4-9.93,8-2.21,7.36-8.19-.81-3,1-4.2,3.18-5.33,2.45-1.25,4.75-2.51,3.11-6.08-.27-1.29,8.21-11.91,10.27-9.11.53,2.88,4.44,5,1.92,8.56a39.14,39.14,0,0,0-.83,18.5c4.11-1.15,6.21-8.38,10.65-7,4.33,7.91-9.55,13.91-13.72,19.48-5.8,5.85-6.89-5.24-5.21-9.15-16.41,4.9,1.67,26.88,12.18,21.87,1.95-1.68,1.38-4.28.46-6.54-3.11-6.86,9.83-20.42,16-19.72,2.18,1.16,2.38,3.46,2.08,5.69-1.75,6,9.28,4.06,15.61,10.65,3.42-3.39,4.94-4.83,9.93-4.09,1.36-3.33,3.82-3.38,6.36-1.76,5,3.43-4.68,7.24-1.81,11.11.77.69,1.54.15,2.25-.25,4-2.71,5.24,2.32,8.89,3.07,9.83,3-1.18,8.14,4.16,11.36,4.69,2.83,2.67,6.32-2.41,5.5.25,2.12.69,3.88-1.07,5.46,6.91,4.3,7.31-4.83,11.84-5.9,8.57,1.3,12.91-4.73,17.44-10.16,4.92-6.08,14-3.35,18.06-11.42,4.78-10.73,20.71,3.29,24.64-11.34,3.19-7.37,12.49-6.85,16.36-13.52,14.25-22.13,28.81-2.34,45.27,4.43,7,2.72-3.94,8.17,7.2,10.58,20.1,4.38,14.21-5.5,28.19-15-8.48-3.83-19.83.55-29.24-2.32-50.9-12.31-27.91-83.29,21.68-67.84,3.28,1,4.93,1.75,7.23-2.22,3.19-5.51,14-3.78,16.9,2.11,3.86,13.08.94,27.52,1.6,41.06.36,10.51,2.62,30.41-13.66,28.06-5.61-.12-5.83,8.57-10.85,11.3-2.59,3-1.37,5.39-.55,8.12.95,3.15,3.63,1.61,5.49,1.71,19.81-4.68,12.44,6.78,13,20,5,18.31,13.85-2.27,19.25,5.48,12,9.69,12.56-15.15,11.53-22.47-.72-6.23-6.76-11.65-6-17.76a1.77,1.77,0,0,1,2.67-.11c11,4.27,16.29-13.22,21.57,6.37,10.91,20.53,24.52-9.59,37.21-6,1.49.58,5.43,10.29,4.55,11.63-3.43,5.26-.63,10.66-.59,16,.85,6.08,12.33.51,17.1,3.84,4.61,1.46,6.69-8.19,2-8.82-5.77-.05-11.53-13-8.08-16.46,4.78-3.46,7.18,5.16,11.1,3.16,1.39-1,3-1.94,1.8-4-2-2.83,3.43-4.59,4.65-2.07,1.93,5.59,3.39-.47,5.4-2.83,3.25-4.06,9.59.77,5,4-4.06,5.22,1.79,13.5-2.35,17.56-4.1,2.29-4.46,8.08-9.56,9.11-.6.12-.95,2-1.23,3.08-1,8.28-8.57,21.09.05,27.13,6.6-.83,12.72-19.81,21.82-10.32,2.21,2.62-1.86,3.07-2.74,4.75-7.45,6.84-9.84,16.2-12.94,25.26,1.63,2.87-.68,4.55-2,6.53-.09,1.76-.59,3.32-2.43,4-4.92,1.61-4.33,9.26-10.87,7.54-2.52-.45-6.14-.05-4.48,4.51,1.51,2.47-12,16.86-13.52,15.28-3.2-4.31,9.37-8.61,6.89-13.14-3-1.91-6.23,6.18-8.78,7.91-1.37,1.45-2.43,3.55-5,3.44-1.27-4.7,16.52-15.22,7-16.36-6.15,9.67-15.17,17.53-22.49,25.94-2.07,7.26-6.84,8.48-13.69,8.23-10,4.59,3.19,11.37-5.91,16.64,13.14,1,13.42-8.77,23.95-12.55,1.47-6.16,6.52-16.11,12.07-12.92,10.64,4.85,12-11.74,20-13.92,5,.4,10,2.69,15.27-.57-3.37,9.28-12.86,13.8-14.21,24.32-.59,3.88-3.73,2.26-5.35.87-5.86-7.48-28.9,1-20.61,9.41,5.08,3.89-14.12,17.87-19.74,16.67-6.53.58-3,5.17-1.8,8.56-3.88,9.11-8.06,5.26-9.52-2.39-2.43-8.32-8.91-16.18-2.89-25.48,2.95-4.24,1.21-12.06-4.43-10.43,3.26,3.85-.85,4.86-2.6,6.79-1.8,7.74-3.26,9.21-8.83,8.67-1.55-.15-3.62.27-3.9-2.1-.24-2,1.33-2.35,2.82-2.82,7.92-3.27-1-9.71-3.2-13.76-7.75-9.4-15.46,5.46-24,6.7a8.16,8.16,0,0,0-5.23,4.28c-2,4.58,4.16,19,9,20.48,5-4.67,6.61-17.39,10.45-24.87,1.18-4.23,8.59,0,5.71,2.91-6.87,6.66-7.15,16.42-11.24,24.52.08,4.69,6.67,4.66,7.89.5,1.43-4.4,4.75-10.41,9.83-8.06,3,.95.5,5.14,2.45,7.51a3,3,0,0,1-.76,4,2,2,0,0,1-1.86.08c-3.48-2.37-13.81.52-11.51,5.57,3.05,8.55,4.91,9.55,14,7,3.83-2.25,4.34,4.11,7,5.88,1.74,3.06-4.47,4.78-6.06,6.95,47.94-16.5,29.21-25.08,60.4-44.48-.51-9.94,22-5.29,26.07-23.28-.91-.52-3.88.22-2.68-1.25,3.12-6.81,7.78-6.71,12.54-10.75,9-11.23,9.29-3.76,15.27-7.6-3.15-11.55-13.82.2-20.48,1.75-1.07-6.11,9.13-6.78,5.87-12.94-3.77-5.51-3.79-5.47,2.49-8.84,3.37-2.25,5.89-6.18,10.55-5.54,8-3.82,8.63-32.68,20.5-32.32,1.36.18,1.55-.83,1.48-2-.25-4.25-9-9.44-12.62-7.44-2.61,3.11-4.88.68-3.41-2.67,3.69-10.83-4.54-8.82-3-13.58,4.08-.64,8.9,3.47,13.79,2,4.57.15,8.77-7.33,12.81-4.22,2.33,6.05-25.67,13.87,4.76,12.13,11.17,1.48,4.16-12.13,8.82-17.63.91-2.38,4.13-3.41,3.84-6.46,1.47,0,1.54,1.09,2.09,1.62,2,2.62,5.36.65,4-2.37-2.22-3.12.75-6,3.27-7.43,3.66-.05,2.08,8.84,10,7.18,5.44-.56,10.28-4.24,10.72-8,7.49-3.62,24.61,4.1,34.69,2.9,9.44-2.66,26.53,3.46,31.66-3.8a2,2,0,0,1,1.8-.55c4,2.45,8,.34,12.07.32,3.11,0,6.31.06,8.68,3.54,1.94,2.47,20.53,4.59,21.48-.12-3.52-2-8.61-.68-12.61-.89C794.71,301.22,786.17,294,793.58,294.53ZM542.15,180.33c.46-1.42,6.83-7.65,7.2-3.41-.21,3.49,1.9,14.53-4.71,10.34A6,6,0,0,1,542.15,180.33Zm-169.49-37.4c-1.36-4.33-8.19-10.68-1.57-13.43,1.57-1.06,3.4-2.84,5.25-.73C382.69,132.07,380.63,149.24,372.66,142.93Zm2.91,73.17-.32-.17.33-.18ZM341.68,208c4.39-4.77,12.87-3.32,14.71,3.08,1.66,5.85-7.9,3.82-11.22,4C340.56,218.06,339,211.18,341.68,208ZM274,197.46c-6.3.92-5.38-10.25-.13-10.53C280.08,186.3,280.19,197.75,274,197.46Zm-89.57-8.91c3.61.26-1.3,4.42-1.62,1.33A1.38,1.38,0,0,1,184.45,188.55Zm40.75,94.62c-1.95,5.67-8.39.92-13.66,5.72-8.57,6.61-52.24,2-35.92-12.94,6.12-7.41,6.18-7.51,15-2.51,4.57,3.2,13.87,3,14.47-3.78-13.4-12.35-36-2.71-31.5-32.69,3.16-17.63,31.54-19.43,44.57-9.5,4.09.67,4.65,2.57,1.93,5.59-.65.73-1.79,1.71-1.08,2.49,2.63,2.84.69,4.67-1.41,5.95-4.87,4.19-9.12-2.2-14.21-2.78-5.08,1.54-4.74,5.71-10,1.09-7.36,13.46,41.86,2.53,29.13,37.73C218.72,281.9,226.71,279.45,225.2,283.17Zm88-28.14h-.07c-2,11.93,7,36.66-11.16,37.55-20.91,0-45.38,1.84-59.42-16.76-20.07-29.68,15.76-65.34,46.16-52.19,2.49.9,4.22,1.51,5.65-1.44,2.35-4.83,6.75-4.86,11.1-3.93C319.21,223.92,311.14,243.43,313.18,255Zm39.12,53.6c-.5.85-1.65,1.88-2.34,1.24-2.72-2.55,1.33-4.77.24-7.42C352.55,304.18,353.81,306.05,352.3,308.63Zm56.61-71.28c-2.34,2-5.78.3-3.39-2.58.39-.86.42-1.73-.52-2.11-4.56-1.88-2.75-6.61-4.31-9.84-.92-1.9,1.07-3.76,2.91-4.64s2.47.85,3.14,2.18c2.73,3.87,7.73,3.67,3.69,9.39-1.25,2-.53,3,1.8,1.77C418.34,229.21,411.79,237,408.91,237.35Zm8-7.84c1.73-1.58,3.14-1.1,5.45,0C420,230.68,418.65,230.74,416.9,229.51Zm45.69-15.38-.31-.19.34-.14Zm2.37-3.81c-.23-4.21,1.22-7.4,4.64-10.24C470,204.09,469.71,204.64,465,210.32Zm23.55,91.62c-3.73,1.39-6.32-3.11-1.84-3.87,3.1-3.4,6.65-3.95,11.44-1.73C495.27,299.51,491.91,300.75,488.51,301.94Zm124.2-21.18c.21,19.1-37.17,10.85-49.4,10-41.14-10.17-30.62-72.56,12.11-69.42,7.45-1.13,14.61,7.05,20.78-1.11C623,204.34,609.86,267.55,612.71,280.76ZM619.19,317c-4,.09-3.2-8-1.32-10,3.84.66.9,5.3,2.76,7.84A1.54,1.54,0,0,1,619.19,317Zm5.66,46.07c-.12,5.11-2.48,11.88-8.38,12.41C610.5,369.1,622.93,352.23,624.85,363.05Zm-.79-64.78c-2.68,5.54-2,5.11-5.16.39-2.75-1.47-1.34-3.07.14-4.18C623.39,289.26,629.28,292.94,624.06,298.27Zm22.83,14c-2.27-5.27.09-12.08,5.7-15.75ZM663,299c-3.47,8,1.59,24.06-7.28,27.76-2.46-1.06-.28-2.76.47-4,.86-3.19,4.31-13.4-.86-13.49-3.58.74-3.23-4.75-.5-5.16,4.28-.13,4.94-3.93,7.26-6.74C662.6,298.19,663.12,298.7,663,299Zm37.19-6.17c0-.41-.27-.85.36-.81C700.57,292.45,700.84,292.89,700.22,292.85Zm6.61,2c-2,.14-2.94-3.19-.49-3.19C708.4,291.25,709.09,295,706.83,294.84Zm3.69-1.73-.31-.2.34-.14Zm55.67-4c-1.68.09-1.88-1.69-.56-2.12C767,286.89,767.21,288.51,766.19,289.15Zm4.28,3.61c-1.1-.48-.67-2.35.64-1.9A1,1,0,0,1,770.47,292.76Z"/><path class="cls-2" d="M391,523.45c31.93-.71,95.69.47,110.46-31.78,3.83-9.94-17.86-.52-23-2.27-1.64,1.49-6.44,5.36-8.26,3.25-1.71-5,23.46-4.45,27.69-9.78-4.25-1.58-8.23-4.18-13.15-3.7-6.37-5.07,1.86-11.95-12.17-13.29-12.37-2.41-23.95,5.14-36.48,3.51-3.51-.58-10.83-2.38-11.45,2.86,4.5,8.19,15.37-2.6,26.83,17.71,2.82,7.53,10.47-2.06,12.5,4.51.76,2.83,2.66,6.24-1.71,8,4.33,4.31,8.5-2.5,12.33,0,1.68,9.4-12.74,8-18.76,10.81-6.71,1.54-11.36-2.74-11.37-9.64,0-3.89.73-9.34-2.75-11.06-4.85-1.91-18.32-9.53-20.76-3.31.58,9.52.58,9.52-8.56,12.14-3.37.16-8.73,4.43-11.15,1.95-9.45-22.26,30.45-7.74,16.75-26.91A21.24,21.24,0,0,1,411,466c-4.07-12.36-10,4.36-15.91-1.55a4.6,4.6,0,0,0-6-.06c-5.07,1.92,1.15,8.26-4,7.65-4.11-.81-9.43,1.27-11.25-5.32-.86-3.12-4.12.25-6.24-.67-2.41-1.05,2.34-4.44-2.05-5.14-4.16-2.12-16.66-1.05-15.48-7.8,2.81-4.52-.53-6.46-3-8.63-12.77-11.71,19.72-17.17-17.7-34.05-12.19-4.39-10.07,8.88,4.5,12.28,1.53.82,4.29,1.71,2.58,4.37-3.76,3.05-10.32-4.65-15.23-4.94-4.22-1.6-7.58,4.13-4.28,7.06,1.78,2.8,7.69,1.54,7,5.9a3.72,3.72,0,0,1-3.39,3.21c-2.79.72-7.87-1.52-9.17,1.73,1.61,6.67,25.51,5.21,21.26,13.58-3.94,8.49,7.91,10.73,8.94,18.36,1.63,7.11,3.91,8.47,11,6.6.92-.24,1.89-1.16,2.56.12,1.92,8.33-23,3.27-17.66,11.82,5.9,5.5-10.44,8,3.48,9.93,1,.19,2.24.54,1.88,1.72-3.09,2.69-5.9-6.2-9.28,4,.9,8.7-18.07-8.76-23.77-.08,24.91,7.51,52.17,10.14,78.29,13.34C390,519.45,390,523.45,391,523.45Zm38.6-10.13a26.41,26.41,0,0,1,3.71.44C431.64,520.7,418.38,513.61,429.58,513.32Zm-6.77-5.55c6.88-.15-2,6.53-2.72,2C420.28,508.15,421.7,507.92,422.81,507.77Zm-12.1,7c-.75-3,3.72-5.7,3.64-1.47C415.11,516.26,410.56,518.92,410.71,514.72Zm-82.33-4.05c-.1,0-.17-.2-.25-.31l.62-.23C328.84,510.45,328.71,510.71,328.38,510.67Zm72.88-.79c3.76.33,2.88,9.81-.57,9C397.17,518.85,397.42,509.24,401.26,509.88Zm-9.87-22.68c1.52-1.33,5.61,3.32,5.58,6.08-.8,4.08-3.75,12.31-8.94,9.53-3.45-1.25-3.1-4-2.67-7C382.05,489.27,388.78,489.48,391.39,487.2Zm-27.25-18.54c3.28-2.71,4.15,2.27,1.55,3.16-2.72.19-4.87,2.62-8.67,1.86C359.79,471.68,361.37,469.35,364.14,468.66Zm.41,42.86c-4,.77-5.16-3.82-.55-3.14C368,507.85,369.25,512,364.55,511.52Zm3.31-6.7c-2.95,1.2-5.5-1.19-8.35-.93-1.2,1.18-1.68.55-1.9-.75-2.16-1.88-.8-2.77,1-3.54.44-2.85,2.31-1.3,2.65.5C362.27,499.33,373.87,504.17,367.86,504.82Zm-1.32-26.27c-1.07-1.82,2.77-4.67,4.55-3.25,3,1.81,5.71,1.55,8.91.07C395,476.24,380.38,495.3,366.54,478.55ZM382,509.86c.31-2.5,2.77-1.44,4.5-1.07,3.35.85,8.5-.08,8,5C393.78,521.43,378.68,517.13,382,509.86Z"/><path class="cls-2" d="M578.08,449.52c-1.84,0-4.32.48-3.68-1.82-11.47,4.92-20.48,17.21-26.83,29.27,13.72-6.47,26.92-13.66,38.37-23.38A10.79,10.79,0,0,0,578.08,449.52Zm-14.67,17.17c-1.9,1.34-3-.43-4.37-1.19-4.12-3.54,8.83-5,10.5-8.46C576.42,456.16,565.83,465.4,563.41,466.69Z"/><path class="cls-2" d="M478.58,489.36c-.07,0-.15,0-.18.05A.41.41,0,0,0,478.58,489.36Z"/><path class="cls-3" d="M641.34,197.07c12.14-.47-2.82,30.83,9,26.5,66.29-16.87,68.08,79.05.54,68.76l0-.24c-4.37,1-3.47-6.39-8.46-5.47-8.57-6.67-18-15.62-16.7-27.33-.38-13.81-.23-27.63-.22-41.44,1.3-7.79,9.82-12.49,11.06-20.38C638.16,197.32,639.75,197.12,641.34,197.07ZM680.87,256c1.12-14-19.7-18.42-29.07-11.8C629.3,269.44,678.08,288.07,680.87,256Z"/><path class="cls-3" d="M157.42,239.57c-3.39,14.31,9.4,52.83-12.07,52.72-16-.45-32.85,1.7-47.51-6.12-35.88-22-8.71-73.88,29.27-64.32,5.54,1.09,10,2.93,13.72-2.65l.07.24C156.17,212.85,157.3,228.12,157.42,239.57Zm-39.28.82c-22.27-.33-20.27,33.25,1.73,32.49C141.39,272.16,141.57,240,118.14,240.39Z"/><path class="cls-3" d="M761.48,248.48c15.73-44.48,55.2-16.94,57.94-28.81,29.21-12.4,14,42.86,17.72,58,1.55,23.17-29.4,12.69-43.72,13.89C772.25,289.26,757.13,269.19,761.48,248.48Zm21,3.67c-7.14,28.72,43.09,25.66,32.05-2.63C808.32,235.54,785.78,237.57,782.53,252.15Z"/><path class="cls-3" d="M490.54,284c-2.68,9-10.05,7.77-17.68,9.41-8.48-3.82-19.84.54-29.24-2.32-50.83-11.7-27.2-84,21.68-67.84,3.28,1,4.93,1.75,7.23-2.22,4.44-6.86,17.44-2.43,18.26,5.85C490.08,245.88,490.42,264.93,490.54,284Zm-37.62-44c-22-.7-23.12,32.54-1.2,33.45C474,274.46,476,240.65,452.92,240Z"/><path class="cls-3" d="M13.77,290.16C-3,282.91,8.63,239.58,5.2,222.64c-.55-5.82,2.48-10,5.64-14.36,6.8-16.65,29.14-9.77,42.28-7.37,25.35,10,20.08,44.53-1.47,52.68a42.92,42.92,0,0,1-19.49,2.92C19.17,256.6,39,292.11,13.77,290.16Zm13.87-62.4c-4.81,17.23,22.62,9.94,19-2.67-1.63-5.52-8-8.66-16-7.6C24.44,218.53,28.91,224.11,27.64,227.76Z"/><path class="cls-2" d="M13.77,290.16c17,1.77,13.86-18.09,13.8-29.32-.78-8.32,18-2,24.08-7.25,23.12-9.06,25.87-44.28-.59-54,6.14-1.44,9.21,4.79,15.16,4.15,6.44-1.72,5.31,6.15,9.48,9.56-.24-6.19,4.31-4.65,7.37-5.32,5.9.53-1.75,12.33,8.72,8.18,4.8,0,7.14-6.86,11.59-4.91,7.6,5.85,29.92.24,33.56,6.82l.42.23c2.85-1.84,8.41-5.53,11.39-1.39-2.82.35-5.77-.31-7.89,2.32-3.76,5.54-8.19,3.76-13.75,2.65-24.78-6.46-53,17.54-45.42,43.61,2.36,8.47,8.78,15.74,16.15,20.71-5.1.75-7.7-3.12-11.26-6.32.11,5.46-6.13,7.71-8.47,2.32-.89-2.41-3.27-.12-4.78-.55-6.63-5-13.55-3.5-20.53-1.06-12.65,11.17-11-5.46-13.32-14.26,2.31,21.8-3.61,25-24.25,26.38C12.22,293.18,13.19,291.61,13.77,290.16Z"/><path class="cls-2" d="M558.41,87.47c-.12-5.68-7.34-12.43-2-17.8,6.64,3.08,6.31-5.07,10.21-6.27,4.11,1.76,11.56,8.21,13.92,1.17,6.47-.82,3.08,3.43,6.06,7.3,4.87,11.17-9.47,19.3-8.74,30.74.82,12.85,16.11,20.35,25.92,26.67,7.26-.6,2.33,6.44,5.85,8.67,4.9-.63,1.22-11.49,5.82-12.89,7.58,2.37,4.59,23.35,9.36,26.71,3.33-.17,2.28-5.22,2.43-7.61,10-.23,1,9.53,5,10.71,13-1,4.57-15,2.34-22.32,9.17,2.74,9.5,16.63,12.64,24.38.53,5.14-4.73-1.67-7.23,0-6.27.17-6.68,6.51-2.16,9.64,2.91,2.16,7.33-2.61,9.17-4.81,16.32-5.76-17.56,30.53-23.78,7.94-1.68-3.46-2.54-41-8.47-25.69,0,1.67-.95,6.4-3.13,4.77-1.77-3.75-4-2.78-6.71-1.45-7.67-3.31-20.13-9.74-20.58-19.53,2-6.34-8.65-4.33-4.17-8.45,5.54-4.22-9.35-11.36-11.62-15.74-2.75-1.61-.22-4.66,1.93-2.35,1.33,1.2,2.67,2.45,4,.21s1.51-4.82-.33-7c-4.16-1.1-7.89,7.68-13.09,1.94-1.73-6.63,4.37-17.11,10.3-8.83.76.76,1.68,2,2.9.77,3.28-3.21-2.4-8-5.55-8.14C564.88,80.92,563.68,86,558.41,87.47Z"/><path class="cls-2" d="M466.74,349.89c7.36.19,4.19,9-1.72,9.56-7.67,2.61,5.68,5.2-.73,6.81,4.92,4.87,14.53-.39,21.25,1.11,1.27,0,3.23.34,3.3-1.34-1.55-4.09-7.95-.19-11.62-2.27,2.65-6.09,23.46-15.85,25.78-5.39,3.47,9.09,10.32,23.62-3.13,27.71-5.62,2.4-19.67,5.4-17-5.11,1.38-6.19,1.39-6.13-5.09-5.71-3.15,1-16.47-2.25-11.78,4.22,16.14,16.71-4,24.85-17.89,19.95-4-3.17-10.21-8.42-15-8.88-1.77.77-4,1.57-3.83-1.48-2-14.93,19.61,2.38,14.24-9.84-9.46-8.08,5.17-19.52,11.82-11.41C455.64,356.06,457.21,355.15,466.74,349.89Zm-10.07,37c-.28,3.7,6.73,7.92,7,2.6C464.08,386.1,457,382.13,456.67,386.89Z"/><path class="cls-3" d="M525.42,199.5c-3.1,28-.28,57.54-1.17,86.05.27,8.36-11.66,3.06-16.89,4.7-9.46,0-1.72-59.11-4.18-70.36,3.24-7.72,11.54-27,22.12-21.13A.82.82,0,0,0,525.42,199.5Z"/><path class="cls-3" d="M747.7,221c6.16,46.51-17.68-17-12.35,64.06.11,4.22-1.13,5.62-5.36,5.2-4.74-1.69-15.31,3.45-15.89-3.71C715.36,257,704.88,217.87,747.7,221Z"/><path class="cls-2" d="M501.07,151.14c13,2.46,7.63,9.71,5.17,18.31-1,10.65-11,16.31-20.32,11.49-19.76-5.93-4.25-13.16-12.39-15.35-6.17-1.33-11.1.63-16.48,3.36-6.41-1.71-26.62-.33-18.62-11.59,10.23-8.43-3.6-10.12-.41-17.64,2.81-8.75,7.64-4.48,14.45-7-4.51,11.49,7,8.08,13.29,11.38-1.37.94-2.61,2.31-4.12,2.74-6.44-.63-11.55,20.47-5.67,13.34C462.21,149.37,491.24,165.79,501.07,151.14Z"/><path class="cls-2" d="M280.46,411.43l.08,0a.21.21,0,0,1,0-.07Z"/><path class="cls-2" d="M254,469c8.17,2.08,9.22-15.9,18.07-8.81,3.16,1.8,6,7.81,10.05,6.52-.58-3.52,5.39.33,5.16-4.3,4-13.69,20.8-8.54,12.84-27.56,2.13-8.21-6.77-5.23-8.28-9.83-.35-7.31-4.37-11.7-11.3-13.58,1.63,5.21,14.48,15.3,4.08,17.88-5.48,1.43.7,10.81-9.13,10.15-26.9,4.52-6.19-3.48-19.1-8.69-2.55-2.9-14.08,1.68-8.74,4.5,1.27-3.12,7.26-1.15,6.52,2.08-.88,2.72-4.2.38-6.14.33-6.06,2.29-7-5.55-13.29-4.2-1,8.18,24.43,13.52,15.82,23.57C249.41,458.72,252.19,468.28,254,469Zm22.91-23.58c-.22-1.53,2.29-2.32,2.81-1.18,1.23,2.67,3.82,2.7,5.68,4.05,4.49,3.34.29,6.74-3.42,8.1-2.7,4.11-7.14.46-6.44-4C275.74,450.54,277.32,448.28,276.91,445.43Z"/><path class="cls-2" d="M526.15,322.2c-5.67-1.62-6.51-10.9.37-9.85,7.37,3.42,34.7,4,24.54,17-7.63,9.31,12.42,27.62-6.62,37.3-15.93,5.15-21-13.94-25.33-24.8C521.88,334.79,531.81,332.15,526.15,322.2Zm16.21,29.1c-2.07-3-1.61-14.42-7.6-12.33-1.31.75-3.62,1.45-2.43,3.57C533.6,346.88,539.48,364.29,542.36,351.3Zm-10.47-23.57c-.06,3.88,1.36,4.44,6.36,1.8,2-1,5.57-1,5.52-3.4-.06-2.77-3.71-1.59-5.67-2.46C533.73,321.71,532,323.09,531.89,327.73Z"/><path class="cls-2" d="M366.85,446.94c30.11,26.92,17.48,1,31.41,8.75,12.23,10.94,25.94-12.17,22-21.83-4,1.31,0,6.34-7.26,2.45-7.26-2.73-14.82-4.69-21.68-8.49-2.5-1.38-7.53,1.61-7.39-4.32-6.79-.33-4,12.38-11.45,8.93C361.11,430.07,362.9,441.89,366.85,446.94ZM405,449.4c7.46-1.38-6-10.28,4-8.35,9.37.31-2.91,17.16-6.49,10.42C401.26,448.82,403.87,449.66,405,449.4Zm-23.76-11.83c3.47,2.26,15.57-2.15,15.17,1.59C395,449,386,443.85,379.24,443.81c-.9,0-2.35,1.67-2.55-.5C376.4,440.13,376.81,437.18,381.23,437.57Z"/><path class="cls-2" d="M427.46,381.41c.06,4.91.42,9.84-1,15.13.1-7.74-5.08-10.34-11-12.59.88,4.46-2.72,13,4,13.27,4.28,4.13,11.13,8.62,12.79,15.33,13,24.41-18.9,11.58-29.32,5.28-3.58-1.88-2.65-5.28-2-8.43.9-7.23,12,.92,13-6.88a1.89,1.89,0,0,0-2.46-1.81c-8.65-1.66,3.9-14.41-5.75-18.3-4,5-13.65,3.33-11-4.9C405.46,376.12,416.6,380.51,427.46,381.41Z"/><path class="cls-2" d="M536.12,373.17c13.94-3.85-6.47,18.85-6.06,23.61,5.74.43,10.67-8.14,15.75-5.34,5.23,1.08-23.76,30.72-25.36,26.55-16.09-6.76,4-18.69,4.92-28.5-4.57,2.65-11.34,12.72-12.85,19.64-2.09-.24-4.53,1.12-6-1.86C496.75,389.32,525.69,382.35,536.12,373.17Z"/><path class="cls-2" d="M394,320.6c-2.2-1.61-.9-3.33,0-4.79,6.38-12.12,20.06-9.55,31.18-12.55,3-.24,2.74,16.67,7.9,21.17,1.94,3.07,2.31,6.31-1.86,8.92-3.61,2.55-5.46,10.82-11.61,8.52,4.69-3.28,8.75-6.72,7.68-13.56-4.81,15.21-30.52,13.69-27.64-3.94-4.32,2.82-.2,7.37-1.25,11.66-10.83-13.19,4.74-26.2,17.94-26.6C406.9,305.24,398.45,313.11,394,320.6Zm17.21-.16c-6.68-1.37-5.58,8.86-.05,8.64C417.66,329.09,417.25,320.21,411.18,320.44Zm4.26-4.84c-6.46-3.62-6.82-3.57-9.87,1.65C409.09,315,412.28,315.75,415.44,315.6ZM402,319.16l-.24.36.38.05Z"/><path class="cls-2" d="M195.8,390.59c-1.05-.55-2.15-1.22-2.15-2.49,1.3-6-8.45-1.67-6-6.63,4.13-6.1-1.3-5-5.16-5.09l.05.05c.29-2,1.65-2.66,3.42-3.06,1.37-.31,2.77-1.2,2-2.77-2-2.56-5.13,1.59-7.37,2.13-11,3.27-3.85-8.62,2.83-7.31,11.7,2.67-9.7-28.94,1.37-31.14,11.76-3.37,1.8,19,14.72,18.07,9.05-.27,3.85,13.34,12.47,14.65,3.23,1.17.37,5.91.81,8.27,1,5.16-.66,3.68-4.27,2.11-6.62,4.93-4.34-3.17-6.61-4.62-.66-.42-.7-1.81-1.06-2.74-.37-2.82-3.44-2.11-3.32.55C196.49,377.55,207.39,388,195.8,390.59Z"/><path class="cls-2" d="M254.41,165.67c-1,6.86-10.14,33.91-19.84,21.87-6.26-4.12-17.32.91-13.28-12.35C226,167.73,227.46,150.3,240,156,244.75,160.21,255.9,157.1,254.41,165.67Z"/><path class="cls-2" d="M443.17,427c24.31-25.66,6.84,20,22,14,5.59-4.62,15.19-9.63,16.86-16.64-1.93-2.64-5.08,0-6.8,1.47-2.57,2.91-11.84,8.79-5.87.67,4.09-4.79,10.08-6.85,14.91-10.57,8.9-5.14-.55-17.91-7.69-11.28-4.51,3.41-9.07,8.66-15.36,2.53C456.91,404.32,427.53,432.48,443.17,427Z"/><path class="cls-2" d="M288.92,74.67c13.79,5.11,24.34,10,9.93,23.32-7.25,9.24-14.38-1.24-23.3-1.28-3.83,1-7,2.39-4.77,7.36,2.69,10.69-6.4,9-10.12,1.46,2.67-2.24,4.58-4.85,3.9-8.59C263.14,84,283,84.09,288.92,74.67Z"/><path class="cls-2" d="M289.47,473.38c2.82.29,6.84-1,7.46,3,.91,6.71,8.05-2.59,12.59,2.82,2.48,1.82,1.34,4.13.94,6.36-1.6,4.74,12.3,11.85,8.71,4-7-7.87,8-1,8.74-6.78,1.9-7.84,8.61-23.29-3.8-24.91-3.07-.41-7.15.64-6.81,5.71a1.32,1.32,0,0,1-2,1.31c-11.67-7.42-24.84-5.82-31.41,7.31C285.69,472.77,288.59,468.13,289.47,473.38Zm23.56-1c6-4.67,12.76,4,3.27,4.5C312.89,476.57,304.54,471.61,313,472.36Z"/><path class="cls-2" d="M578.31,338.05c3.22-1.6,22-11,18.27-2.43-1.12,4.59-16.58,4.37-9.62,8.81,8.46,3.75,10.21,7.93-.11,10.44-6.08,1.16-2.44,6.69-3.46,10.83-3.11,6.48,5.65,9.56,3.75,15.53-.85,2.49-3.13,2.12-5.07,2.14-7.58-.05-18.75,9.43-23.31-.72-1.92-3.68.62-5.31,2.59-6.41,3.55-2,4.37-6.08,7.47-8.24C581.94,374.42,572,344.41,578.31,338.05Z"/><path class="cls-2" d="M454.57,212c-4.22-5-11.1-.35-15.74-4.42-5.39-4.52-2-10.56,3.8-12.21,10.28-7-5.44-4.94-4.59-10.77-2-9.23,29.21-9.93,30.14-3.09.69,2.93.35,6.72-2.29,7.51-5.32,1.59-1.87,3.81-1.17,6C461.81,200.9,459.34,207.12,454.57,212Z"/><path class="cls-2" d="M264.38,405.1c1.42,5.68-5.52,10.1-7.87,15.09-1,5.78-9.83,3.2-9-2-.09-7-.38-7.37-7.2-6.18-10.81.36-12.32-15.8-4.38-21.17,3.28-3.72,11.16-10.8,12.3-1.82C247,401,265.53,390.54,264.38,405.1Z"/><path class="cls-3" d="M452,135.36c.49-4,2.29-8.35,7.36-7.41,10.11,3.52,25.24-3.36,32.87,3.86-1.13,8.06-13.35,9.53-19.12,14.42-6.85,6,10.12,4.89,13.48,4.68,5.7.24,7,1.26,6.31,5.67-10.09.47-20,.38-30.32-.13-3.24-.41-5.54.37-6.61,3.69-.26,3-3.82,1.08-2.66-1.31,1.58-13.83,12.85-10.83,17.6-19.49,0-2.64,1.18-2.59,3-2.65,7.55-2.36-5.29-2.86-8-2.5-5.41-.41-11.43-2.16-13.57,5.53C451.43,138.32,452.75,136.89,452,135.36Z"/><path class="cls-3" d="M362,128c14.66,27.57,17.68,42.6-15.92,20-1.69-1.94-3.72-.11-2.24,1.85,1.64,6.2,8.37,12.64,5.56,19.12-5.57,2.5-6.63-1.73-9.09-5.62-.11-8.14-10.91-16.89-6.53-24.08,6.46-6,15.12,3.46,21,6.9,10.95,6.17,3.77-7.63,1.1-11.82C352.67,130.5,357.88,124.83,362,128Z"/><path class="cls-3" d="M428,191.35c-6.36,0-38.21,5.77-29.51-6.4,10.5-12.55,28.36-23.21-1.83-21.54-4.22-9.79,14.05-4.45,19.5-6.06,5.31.62,19.74.33,10.39,8.43C391.78,202.11,421.18,175.05,428,191.35Z"/><path class="cls-2" d="M479.4,79.81c4.84-2.87,11.27-1.38,16.28-5.33,4.91-2.09,4.66-2.68,10.27-.15-4.47,2.91-3.51,12.93,3,12.33,4.85-.78,8.15,4.51,3.93,7.83-2.18,2.69-4.09,5.41-8.19,6.05-5,1-16.46,10.17-15.59-1.07,3.37-8.91-6.26-5.7-10.69-9.84A11.69,11.69,0,0,0,479.4,79.81Z"/><path class="cls-2" d="M293.7,342.93c-6.76,8.85-20.81,22.39-29.2,7.81-3.39-4.95-9.6-11.18-4.19-16.22,4.05-4.67,8.2-9.94,15.12-10.95C275.13,334.85,287,336.35,293.7,342.93Z"/><path class="cls-2" d="M334.9,150.14c4.11,10.66.84,15.65-6.23,23.88-4.55,2.45-13,2.77-17.87,1.13-1.26-14-6.95-6.8-15.78-3.61-.07-7.61,14.22-6.26,10.58-15.83C320.77,148.43,316.22,139.58,334.9,150.14Zm-18.39,11.3c.38,8.22,12.38,5.15,11.67-1.44C327.27,151.39,315.91,153.11,316.51,161.44Z"/><path class="cls-2" d="M307.28,42.65c1.61,11.61,25.9,1.29,17.05,13a10.72,10.72,0,0,0-.77,3.28c-5.29,1.41-8.92,5-12.57,8.85-3.11,4.38-10.86,2.45-10.13-3.64.21-3.18-4.75-4.41-8.23-2.59-5.22,1.54-13.9,9.17-18.44,6.85,1.44-4.94,10.19-6.74,14.63-8.76,7.66-1,5.43-5.62,6.45-11.32C296.64,43.92,303.51,37.83,307.28,42.65Z"/><path class="cls-3" d="M305.6,155.71c3.62,9.58-10.63,8.21-10.58,15.82,1.74,5,2.79,13.32,9.53,7.64,4.24-3.6,10.07-6,8.92,2-8.59,7-18.28,12.45-27.27,18.9-11.47-5.3,11-10.58,5.48-17.53-2.67-3.73-1.63-11.86-7.54-6.17-2.2,1.35-3.07,4.92-6.4,3.22-2.6-1.34-2.5-3.59-1.93-6C285.79,168.52,294.68,157.24,305.6,155.71Z"/><path class="cls-3" d="M365.62,85.66c4.8,4.92,21.19,3.09,13.48,12.79-8.94,1.79-20.91-.26-28.39,3.64,2.68,3.61,9.52,4,13.72,6,3.4,1,4.56,2.81,2.92,6.09-10.45.93-21.14-7.16-31.74-8.74-1.91-13,18.88-5.75,24.4-12.23-1-4.66-12.68-1.93-11.31-7.94C351.86,77.79,360.14,86,365.62,85.66Z"/><path class="cls-2" d="M514.74,28.47c2.38-7.3,14.6,1.47,17.73,5.71,1.82,3,6.14,6.14,11.1,4,1-.42,1.58.25,1.89,1.09,1.88,5.09,10.27,0,10.11,7,2.64,8.81,7.13,17.58-5.62,20.35-2.91.75-5.59,5-8.05,1.1,7.73-6.68,5.18-12.95-.78-19.25-5.38-7.8-5.38-7.8-12-1.66C517.11,34.12,509.17,39.37,514.74,28.47Zm37,20.31c-6,.82,2.89,8.94,3.36,3.58A4,4,0,0,0,551.77,48.78Z"/><path class="cls-2" d="M237,138.23c-3.61-3.26-13.42-16.07-16.52-7-2.87-1.21-5.25,1.68-8.27,1.23.83-7.88,11.18-4.65,12.73-11.9,1.09,0,2.32-.53,2.53,1.37.15,1.42-.76,4.49,1.43,3.76s6.82,2.31,7-3.37c1.12-5.36,8.77-6.66,10.15-12.45,1.46-3.85,4-3.93,6.16-.75,1.79,2.58,4.08,4,7,4C271.38,117.36,242.86,136.45,237,138.23Z"/><path class="cls-3" d="M286.67,121.52c1.42-4.16-4.41-14.27,4.07-12.51,14-9.17,30.14-15.9,31.08,8.45-3.87,11-13.05,16-23.92,17.61-7.89.67-6.75-10,.75-7.45C322,134,314.1,91.8,296.37,112.51c-.8,1.74.81,4,2.77,2.63,4.85-3,6.78,4.12,1.7,4.81C296.51,121,289.88,127.77,286.67,121.52Z"/><path class="cls-2" d="M452.43,358.67c-4.55-3.58-12.06,1.65-15.06-4-1.64-5,6.65-7.42,3.18-12.91-1.56-3-1.08-8,1-10.22,1.53-1.48,4.56.76,6.09,2.14,7.31,8.62,15-4.27,22.13,1.17,3.77,2.48-1.46,14.49-5.74,14C458.14,349.77,453.91,352.59,452.43,358.67Z"/><path class="cls-3" d="M391.72,108.91c.13-12.79,26.19,1.43,34.24.88,21.13,8.53-25.78,18.36-31.66,22.47-3.42-3.42-3.2-5.19.91-7.35C404.45,120.29,401.48,109.21,391.72,108.91Zm25.6,6.21c-3.64.44-7.63-4-10.68-1.75C403.49,121.77,414.3,120.29,417.32,115.12Z"/><path class="cls-2" d="M394.3,132.26c18.09-8.76,63.29-16.25,16.35-26.56,5.84-.6,12.69-12,15.62-1.41-.59.25-1.3.4-1.21,1.27.59.94,1.51-.2,1.63-.86,21.2,19.08,21.07,13.62.65,30.88-12.61,10.22-5-15.79-28.34-1.49C396.44,135.36,395.34,134.2,394.3,132.26Z"/><path class="cls-3" d="M420,70.13c-6.29,1.58-48.42,20.28-34.93,1.74,5.39-3.69,10.5-7.18,14-12.89-4.8,1.25-31.12,11.21-19.89-.4,7.82-3.34,17.3-2.69,24.13-7.89,6-2.3,14.83,1.1,7.31,7-5.26,6.16-11.35,7.24-15.85,15.11,6.76-3.38,13.16-3.33,18.7-6.32C416.53,64.14,420.93,65.07,420,70.13Z"/><path class="cls-3" d="M479.4,79.81c6.37,17.34-25.95,20.69-12.83,11.55,4.79-.56,8.56-6.93,4.17-10.56-4.82-1.3-7.57,5.55-10.86,8.15-19.33,13-29.18-17.26-6.68-19.28,4.23.26,5,1.94,2.75,5.45-4.62-1.05-12.3,4.52-7.9,9.26C457.87,90.91,461.23,63.45,479.4,79.81Z"/><path class="cls-2" d="M280.51,411.38c-5.08-.42-4.35-8.23-9.51-6.6a2.2,2.2,0,0,1-2.86-2.47c1.54-8.3-7.54-19.1,1.28-25.07,11.31-6,11,19.09,22.74,21.43,1.27.61,2.82,2.58,1.31,3.58-2.39,1.58-.79,7-6,5.71C284.52,407.1,280.27,405.81,280.51,411.38Z"/><path class="cls-2" d="M286.67,121.52c4.79,4,4.16,8.87,5.19,14,.39.63-2.61,1.52-2.84.27.43,1.73-1.76,3.64-.62,6.11,3.21,11-13.8,14.79-19.27,6.36-4-6.14,5.36-9.39,3.41-15.5C269.22,122.81,280.7,124.19,286.67,121.52Z"/><path class="cls-2" d="M462.72,43.76c4.9,2.75,8.57,9.24,14.92,7.25,1.88-.58,3.77-.58,4.47,1.75.07,7.41-12.56,5.88-17.71,8.59a3.2,3.2,0,0,1-3.79-1.75c-4.63-8.64-13-.43-19.91-1.2-2.12-.19-5.11,1.26-5.95-1.94C432.46,41.69,453.61,46.37,462.72,43.76Z"/><path class="cls-3" d="M255.45,377.26c-15,3.43-5.1-14-16.9-12.47a1.49,1.49,0,0,0-.41-2.12c-6-4.71-3.69-12.7-.48-18.1,2.08-1.63,4.8-6.88,7.7-4.78,1.81,2.71-2.14,2.29-3.15,5.48,11.09-4.72,14,14.58,21.3,19.73,1.67,5.76-5.19,6.92-6.1,11.36C257,376.55,256.07,377,255.45,377.26Zm-16.18-25.88c-2.89,1.37-3,4.05-2.21,6.36s2.84.13,4.33.4c2.6.33,7.51.85,8.35-2.27C249.12,350.37,242.11,342.5,239.27,351.38Zm17.15,14.13c-.7-6.79-8.23-6.59-8.71.06C247.8,370.45,256.45,370.81,256.42,365.51Z"/><path class="cls-2" d="M323.36,384.14C320.9,382.73,302.23,368,310.94,370c14.74,6.52,2-19.11,16.24-12.34,6.8,2.17,6.34,10.47,12.51,13.43,1.73,1.1,3.47,2,1.07,4.51-1.75,1.86.33,6-3.89,7-3.71.86-5.18-1.68-7.42-3.64-1.46-1.28-3.9.06-5.67.75C321.66,380.52,324.26,382.27,323.36,384.14Z"/><path class="cls-2" d="M389.35,406.15c.66,6.11-10.6,12.08-11.9,5.13-.13-13.7-12.23-14.94-18.68-22,1.17-7.85,30.26-12.31,23,1C378.21,397.33,389.54,399.58,389.35,406.15Z"/><path class="cls-3" d="M301.54,41.32c-2.42,2-5.47,3.5-6.27,7-17.17,4,4.61-10.74,9.09-12.57,8.74-2.77,9.05-3.26,6-11.2,7.93-6,16.61-8.41,26.3-6-.1,1.32.69,1.57,1.77,1.45,4.14,1.55,1.63,5.33-2.13,4.3-7.61-.83-13,5.78-19.44,8.27-3.56.6-2.12,4.55,1,4,19.22-1.42,6.7,7.59-4,4.92a9.38,9.38,0,0,0-6.66,1.23C306,41.25,303,39,301.54,41.32Z"/><path class="cls-2" d="M568.5,166.55c15.75-7.8-6.17-8,4.15-11.67,2.65-.78,6.05-.75,4.05-5.53l7.89,2.73c-2.58,6.07-11.12,15.91-6.87,21.64,2,.95,4.66-10.77,6.64-13.17,2.14,2.39,3,4.34.09,6.45-2.4,1.92.27,5.5,2.22,2.42,4.22-2.65,9.46-3,13.53-6.07,3.17-2.37,4.83,4.89,2.83,6.82-7.11,2.37-20.66,14.3-26.75,7.61C568,174.28,568.24,181.31,568.5,166.55Z"/><path class="cls-3" d="M462.72,43.76l-23.33,2.71c-7.51-.34-7.5-.34-8.83,7.29-1.72,4.25-4.31,6.51-3.37,9.6-6.84,3-7.73-2-8.87-7.37-5-6.46,6.81-1,4.73-6.46-.2-8.23.5-16.72,10-15.58,2.14-.71,3.89,1.71,1.43,2.8C424.64,50.76,464.76,34.33,462.72,43.76Z"/><path class="cls-3" d="M182.07,342.55c6.67,32.09,9.49,16.66-7.51,26.74-11-20.65-19.15-21.4,6.83-28.78A6.63,6.63,0,0,0,182.07,342.55Zm-.07,9.11c.31-2.89-5.55-6.1-5-1.78C176.64,353.34,181.94,357,182,351.66Z"/><path class="cls-2" d="M555.42,101.92c-.47,3.43,6.24,2.58,4.56,6.53a7.52,7.52,0,0,1-5.72,5c-4.53-1.06-13.51,6.87-14.37-.06-.74-4.56-1-9.19-2.53-13.62.85-3.25,8.48-19.87,12.56-9.94,1,2,.36,5.3,3.84,5.71C554.13,97.72,551.73,100.62,555.42,101.92Z"/><path class="cls-3" d="M197.87,303.51l2.61-.69c-2.82,3.07,24,40.44,8.19,31.28a76.16,76.16,0,0,0-6.88-6.28c-1.18-1.95-2.25-5.6-4.69-4.1-2.77,3.64,11.17,15.43,7.73,22.59-7.58-5.94-9.24-18.6-14.58-26.88-1-2.17-2.14-4.69.24-6.3,5.29-3.11,5.9,6.17,11.32,6C202.23,313,196.68,309.76,197.87,303.51Z"/><path class="cls-3" d="M384.26,34.38c34.21.13-48.34,16.17-22.75,3.24,4.49-2.8,12.39-3.47,15.07-7.69-3.62-3.42-12.87,4.52-15.92-.39.19-3.78,6.93-2.46,9.68-4,3.52,0,34.46-8,22.74,1.36-6.29,3.31-13.23,4.55-18.6,9.49C378.36,37.2,381.24,35.48,384.26,34.38Z"/><path class="cls-2" d="M432.12,453.52c8-1.35,19.83,3.28,25.79-2.54,3.23-14.94-17-10.05-25.84-10.9C423.06,439.6,424,454.22,432.12,453.52Z"/><path class="cls-2" d="M224.45,428.34c-3.49,0-4.91-1-2.39-4.06,1.75-1.64.72-5.42-1.78-5.21-3.86,1.42.78,11.23-7.1,5.55-3.51-3.17-9.92-8.17-9.54-12.71,2-1.45,3.3,1.64,4.51,2.82,1.3,1.93,3.79,1.28,3-1.21-.43-4.67,2.7-5.75,6.59-7,3.75-3.24,5.28-3.06,6.61,1.71C228.69,416.29,241.28,425.7,224.45,428.34Z"/><path class="cls-3" d="M202.7,171.25c7.77-21.74,8.67,16.06,5,21.59-6.61,1.57-.61-4.63-5.32-5.14-2.9,0-6.38,4.48-6.18,7.85.49,3.59.33,9.86-4,10.88-4.18-5.16-.39-16.38-1.72-23.42,0-2.63.82-4.94,3.41-5.17,4.49-.27.64,5,3.13,6.51,2.42.37,3.32-3,4.79-4.4C206.64,177.5,203.35,174.25,202.7,171.25Z"/><path class="cls-2" d="M428.11,29.55c-5.63-.16-14.87,2.79-19.23-3.09-.74-1.09-1.68-1.73-2.87-.67-2.17,2.88-6.81,1.16-7-2.2,9.2-9,25.4.55,36.23-6.56,1.64-1.2,3-.25,2.59,1.86-.48,2.42.36,3.95,2.05,5.67C444.5,31.32,432.64,29.36,428.11,29.55Z"/><path class="cls-3" d="M323.32,59.24l.24-.32c11.13-8.55,6.81,10.57,21.07,2.55,2.62.18,6.32-3,8.18-.61,1,4.62-7.07,5-10.17,6.36-10.38,2.12,9.61,6.26-7.55,12-1.87-3-2.36-9.74-7.29-7.89-3.58,1.47-22.34,8.37-13.57-.88C325.9,65.6,328.51,70.81,323.32,59.24Z"/><path class="cls-2" d="M537.45,131.3c9.7,3.31-11.66,18.63-21.14,6-2.56-3.79-14.84-2.06-10-8,6.55-8.87,13.07-1.81,21-.67C529.38,141.61,529.61,138.12,537.45,131.3Z"/><path class="cls-2" d="M336.77,78.86c13.94-5.85-4-9.49,5.87-11.64,3.1-1.33,11.14-1.74,10.18-6.36-.76-1.35-2.1-1-3.48-.48-1.75.45-5.38,2.14-5.51-.6,2.62-3.32,11.1-5.19,12.79-.51,1.14,4.73,9.09,8.71,2.58,13.06C352.33,75.07,342.53,88.17,336.77,78.86Z"/><path class="cls-2" d="M597.33,101.1c-6.64,2.63-6.06-24.15-.09-17.74,4.28,4.37,7.47,9.71,12.44,13.51,2.18,5.12-7.65,12.87,4.2,11,5.6-1.67,2.91,8.23-.87,4.28-1.34-1.63-3.18-1.46-5-1.82C596.13,109.51,605.53,98.52,597.33,101.1Z"/><path class="cls-2" d="M327.16,40c4.51-7.34-11.05-.39-12.41-5.2,1.25-2.77,13.53-9,17.32-10.12,1.45-.25,2.76-.87,4.27-.42,4.14.56,6-4.05,10.61-3.7-2.05,7.47-2,17-12.08,17.79-7.38,1.07-1.54,7.26-5.24,7.93C326.25,46.17,326.6,42.4,327.16,40Zm5.22-5c4,.87,3.45-5.14-.12-4.56C326.6,30.08,327.6,34.73,332.38,35Z"/><path class="cls-3" d="M408.49,502.48c10.6-2.21,14.05-3.69,12.44-15.17a.42.42,0,0,1-.46-.53c-6.33,1.28-14.79,1.77-19.54,6C399.34,500,399.32,507.49,408.49,502.48Z"/><path class="cls-2" d="M380.42,353.9c-5,16.06-15.75-8.69-20.74-13.58-1.5-2.06-4.1-3.89-2.16-6.87,1.08-1.66,8.65-1.34,9.68.93C370.79,341.56,379.17,345.41,380.42,353.9Z"/><path class="cls-2" d="M448.41,91.56c2.73-.68,9,2.22,3.6,3.89-6.11,0-11.81-2.3-18-.09-9.31,1.43-9.51-10.26-10.06-16.71.07-4.35,6.82-2.7,7.34,1-1,6.63,6.18,5.12,5.63-1-.11-3.31,1.79-5,5.16-2.61A9.35,9.35,0,0,0,448.41,91.56Z"/><path class="cls-3" d="M529.08,46.8c6.66-6.14,6.66-6.14,12,1.66,6,6.29,8.51,12.57.78,19.25C536.9,68.5,527.11,51.13,529.08,46.8Z"/><path class="cls-3" d="M225,120.55c-1.55,7.25-11.9,4-12.73,11.9,2.8.69,9.06-4.46,8.14.9-3,5.2-9.48,4-13.4,7.89-7.25-3.39,4-11.25,2.82-16.81,8.84-21,34.41-19.63,13.91-9.36-2.33.83-5.95,1.81-5,4.22C220,122.92,224.74,115.34,225,120.55Z"/><path class="cls-3" d="M634.51,132.55c1.76,5.1,3.64,10.16,5.24,15.31,1.68,4-10.79,11.38-8.45,3.84,3-3-.94-9.7-4-7.43l-.08-.11c-1.79-4.11-7.17-11-3.4-14.8C630.87,127.66,632.23,122.56,634.51,132.55Z"/><path class="cls-3" d="M237,138.23c5.71-.37,17.39-15.54,19.81-7-.65,7.66,8.29,23.86-3,25.85-3.24-4.33-1.85-12.06-3.28-17.57-2-7.22-10.68,7.73-14.8,3.95C233.7,141.4,236.39,139.94,237,138.23Z"/><path class="cls-3" d="M240.37,281.53c-1.36,11.63-12.57,31.55,6.32,12.39,5.67-4.59,5.5,5,1.83,7.35-6.76,6.24-21.09,23.49-17.26,2.07C234.91,296.15,232.41,285.64,240.37,281.53Z"/><path class="cls-2" d="M423.32,43.82c.11,1.9-1.29,3.59-.27,5.71,2.1,5.5-9.72,0-4.73,6.47,3.31,4.88-2.06,4.69-2.11,8.62-2,2.62-12.65,4.72-12.88-.28,7.82-5.79,17.8-16.83,0-13.65,4.52-3.23,10.3-12.89,16.22-7.39C421.05,44.85,422,44,423.32,43.82Z"/><path class="cls-3" d="M578.31,338.05c-3.78,8.09-1.93,18-2.83,26.78.07,4-1,5.17-4.71,3.47-8.12-4.45-3.23-18.46-3.91-26.37,1.21-2.43-1.21-8,2.6-7.95C572.56,334.25,577.12,333,578.31,338.05Zm-4.11,10.63c.76-11.69-7-14.26-5.11-6.59,2.26,3.18-.3,11.52,2.91,12.26C575.11,354.39,573.5,350.72,574.2,348.68Z"/><path class="cls-2" d="M618.35,177.69c.95,5.53-6.41,6.77-8.16,11.31-.5,1-1,2.32-2.46,2a2.37,2.37,0,0,1-1.7-2.74c1.57-5.61-5.75-6.57-5.29-11.37C606.23,170.36,617.88,160.6,618.35,177.69Z"/><path class="cls-3" d="M234.26,199.85c7.41,6.91,22.58,10.52,16,23.76-6.93-6.39-13.21-13.76-22.42-18.22C225.72,200.84,230.22,196.6,234.26,199.85Z"/><path class="cls-3" d="M427.46,381.41c-10.86-.9-22-5.29-32.78-3.9-3.46-2.93.58-4.57,1.16-6.8C402.51,373.43,435.34,369.34,427.46,381.41Z"/><path class="cls-3" d="M288.92,74.67C283,84.09,263.13,84,264.56,96.94c.68,3.74-1.23,6.35-3.9,8.59-4.05-3.42-1.56-10.28-2.78-15,1.27-4.93,7.43-4.73,9.66-8.77C273.6,82.09,286.12,67.35,288.92,74.67Z"/><path class="cls-3" d="M184.49,172.45c-.09,4.65-4.29,6.91-6.16,10.53-7.11-.49,7-12.15,5.17-17.5-3.53,1.77-3.84,6-6.05,8.73-2.9,5-6.1,5.61-6.18-1a121.83,121.83,0,0,1,7-17.49c1.32-2.05,2.15-2.34,5-1.16C192.9,158.84,186.18,167.22,184.49,172.45Zm-7.7-5.49c3.33-2.64,4.36-4.4,5.41-8.88C178.94,160.07,177.6,163,176.79,167Z"/><path class="cls-3" d="M282.25,476.07h-.05v0Z"/><path class="cls-3" d="M280.53,476.41a1.38,1.38,0,0,1,1.67-.35c2.35-7.71,9.2-14.85,17.8-16.1,0,0,.24.26.23.26l7.24.73c3.06-18.4-18-9.29-20.19,1.47.55,3.31-3.79,2.23-5.16,4.3C281.63,469.51,274,476.66,280.53,476.41Z"/><path class="cls-3" d="M234.34,436.41a52.7,52.7,0,0,1,14.78,12.17c-4.62,8.61-11.26,4.15-17.57-1-1.62-1.55-5.94-1.17-4.75-4.58C227.93,439.76,229.53,435.92,234.34,436.41Z"/><path class="cls-2" d="M420.26,373.39c-4.1-1.7-34.42,0-23.81-7.54,4.75-1.33,11.33.82,12-6.53.16-3.42,6.71-3.93,7.23-.9C415.83,363.9,420.74,367.83,420.26,373.39Z"/><path class="cls-2" d="M389.6,38.36c7.25-4,26.63,16.38-4.81,18.41C383.19,42.83,394.8,45.32,389.6,38.36Z"/><path class="cls-3" d="M537.45,131.3c-3.26.81-6.78,10.64-8.9,3.95-4.18-5.13.39-38.76,5-25.31C534.72,117.08,536.12,124.19,537.45,131.3Z"/><path class="cls-2" d="M4.56,284.57c-6.57-4.19-1.13-7.92-2.11-13.47-.69-9-5.22-45.45.13-49.6C7.9,240.07,1.52,264,4.56,284.57Z"/><path class="cls-2" d="M204.83,346.31c3.06-6.91-7.8-12.75-3-18.49,17.54,17.45,5.36,0,22.24,2.67,1,1.82-.85,3-2.15,3.91C215.64,338.58,215.46,348.55,204.83,346.31Z"/><path class="cls-3" d="M293.7,342.93c-3-4.71-14.79-6.11-13.62-11.95,2.93,1,5.86-1.56,8.48-.18,5.5,4.1,15.94,6,16.8,12.82C302.81,348.84,297.42,343.44,293.7,342.93Z"/><path class="cls-2" d="M321.82,117.46c-4.29-14.91,19.1-19,15.32-2.9C333.6,116.49,325.7,121.89,321.82,117.46Z"/><path class="cls-3" d="M550.48,455.49c7.64-8.92,11.82-5.85,4.83-17.68-6.6,1.39-9.31,7.45-13.74,11.43C543.78,451.29,547.08,458.77,550.48,455.49Z"/><path class="cls-2" d="M310.4,24.54c3,7.94,2.7,8.43-6,11.2-3.76,1.19-6.15,4.87-10.09,5.82-3-8.85,5-11.24,9.26-15.75C305.51,24.22,308.69,21.23,310.4,24.54Z"/><path class="cls-3" d="M493,462.74c4.09-8.11,4.37-17.87,11.24-24.53,2-1.68-.26-3.16-1.3-4-5.19-5.27-11.9,21.83-13,25.82C491.39,459.74,492,461.94,493,462.74Z"/><path class="cls-3" d="M490,460.06l-.43.08C489.74,460.2,489.93,460.26,490,460.06Z"/><path class="cls-2" d="M370.35,25.53c-2.77,1.55-9.48.23-9.69,4,.39,1.72,1.75,1.74,3.17,1.49,3.92.07,9.75-3.38,12.75-1.09-2.69,4.22-10.57,4.89-15.07,7.7-3.47.78-5.63,6.19-9.43,3.57,2.44-2.25,7.46-11.45.5-9.84C357.84,28.82,364.71,18.63,370.35,25.53Z"/><path class="cls-2" d="M416.15,157.35c-6.59,1.35-15.79-2.31-20.77,2.77C387.3,156.33,420.29,136.69,416.15,157.35Z"/><path class="cls-3" d="M241.48,80.05C236,70.81,253,71.43,255.05,63.53c.61-4.45,9.82-7.67,10.34-2.46a7.5,7.5,0,0,1-5.57,5.07C250,66,249.73,81,241.48,80.05Z"/><path class="cls-3" d="M573.45,399.55c-5.4,7-10.36,14.4-17.22,20.17-5.33-7.94,7.83-12.74,10.17-19.43C568.91,395.73,570.88,397.48,573.45,399.55Z"/><path class="cls-2" d="M314.62,75.69c8.42-2.5,18.09-9.16,20.47,3.54C325,79.62,319.52,89,314.62,75.69Z"/><path class="cls-2" d="M237.66,344.57c-2.18,3.58-7.88,20.88-13.07,18.06C217.69,358.47,227.77,340.17,237.66,344.57Z"/><path class="cls-2" d="M530.9,106.8c-1,2.5-4.56,6.62-7.19,6-12.06-3.15-18.3,1.17-7-12.18C519.77,106.81,528.87,100.83,530.9,106.8Z"/><path class="cls-3" d="M322.1,503c8,4.27,14.92,4,13.54-6.55-3.93.41-7.26-1.95-11.06-2.3C319.13,493.6,316,502.44,322.1,503Z"/><path class="cls-2" d="M396.65,163.41c21.58-1.53,21.54,4.76,5.18,16.42C403,172,397.57,169.32,396.65,163.41Z"/><path class="cls-3" d="M536.12,373.17c-9.41,7.19-22.11,11.38-29.36,20.77-4.92-8.15,20.89-16.64,26.18-22.31C534.6,370.57,536.19,370.33,536.12,373.17Z"/><path class="cls-2" d="M499.22,25.81c-3,6-11.24.27-16.66-1.43,4.62-2.87,9,.24,13.32-.72-1.9-5.44-9.46-.57-10.44-6.55-.64-4.3,5.63-5,7.79-1.79,1.41,1.74,2.94,3.59,5.35,4.16C500.49,21.42,498.51,23.75,499.22,25.81Z"/><path class="cls-2" d="M479.54,29.44c3.44,1.58,37.76,3,27.22,8.6C500.49,36.07,477.29,37.59,479.54,29.44Z"/><path class="cls-3" d="M164.51,214.55c7.57-16.73,10.27-14.76,12,2.39l-4.51-.53c-.19-7.65-8,2.2-6.14,6C161.37,221.72,163.89,217,164.51,214.55Z"/><path class="cls-3" d="M276.63,329.44c-2.7-7.76.81-20.13,10.86-18.24.88,2.39-2,2.18-1.17,4.14,1.8,1.57,1.89-.93,1.1-1.95,4.74,1,2.18,4.16,2,6.62-1.48.51-2.37-.78-3.55-1.21C277.57,315.82,282.3,327.83,276.63,329.44Z"/><path class="cls-2" d="M247.43,77.47c2.11-3.23,5.95,3.31,9.29-1.22.9-1,1.27,1.35,1.75,2.26l0,0c-5.55.31.1,6.42.91,9.12-.11,3.37-10.12,5.44-8,.5C252.14,84,247.05,81.71,247.43,77.47Z"/><path class="cls-2" d="M376.66,12.13c-.86,2.15-2.14,4-4.73,3.2-8-3.27-12.43,8.78-19.87,3.92C356.85,16.63,376,2,376.66,12.13Z"/><path class="cls-2" d="M370.68,410.35c1.08,4-5.68,8.23-8.09,5.7-3.94-6-.31-5.7.33-10.83C359.11,397.34,372.46,406,370.68,410.35Z"/><path class="cls-3" d="M580.49,64.57c-2.37,7-9.79.62-13.92-1.17C566.91,56.22,580.11,57.64,580.49,64.57Z"/><path class="cls-3" d="M387.83,0c2.25,1.45,6.61-.8,7.37,3.71-.16,5.4-12.57,14.38-10.84,3.77C385.1,5,381.52.28,387.83,0Z"/><path class="cls-3" d="M454.57,212c5.71-3.45,9.75-23.77,16.36-19.3-5.41,6.06-8.4,13.57-12.29,20.54C456.89,218.13,450.32,215.73,454.57,212Z"/><path class="cls-3" d="M279,56.24c-8.3-.43-15-13.16-2.82-16.77C273.63,46.46,279.29,50.8,279,56.24Z"/><path class="cls-2" d="M238.55,364.79c13.21-1.54,4.08,17.72-3,12.95C230,373.24,239.37,369.88,238.55,364.79Z"/><path class="cls-2" d="M167.76,309.17c.8,5.5.46,5.77-7.33,5.9-4.78-1.38.83-7.62.27-11.3.17-2.94,5.33-3.67,6.09-1.09C163,307.39,168.46,304,167.76,309.17Z"/><path class="cls-3" d="M454.16,6.64c3.34-1.21,11.14-.5,11.53,3.45-3.17,4.21,5.93,8.29.19,10.79a2.49,2.49,0,0,1-1.79-2.7C465.14,9.84,453.83,14.18,454.16,6.64Z"/><path class="cls-3" d="M452.43,358.67c1.58-6.85,8-10.93,14.3-8.78,0,1.48-1.48,1.7-2.63,1.79-8.69,2.16-8.14,9.41-8.81,16.13C451.42,367.15,453.09,361.56,452.43,358.67Z"/><path class="cls-2" d="M621.41,413.38c-.23,5.47-8.81,17.42-13.5,17.37-2.45-2.82,9.39-16.19,13.54-17.33Z"/><path class="cls-2" d="M458.73,78.82c-2.52,8.93-16.46,9-10.29-.95C451.06,74.24,458,73.64,458.73,78.82Z"/><path class="cls-2" d="M645,373.47c-1.59-6.25,1.58-8.34-4.92-12.12,7.33-1.18,4.86-4.53,8.51-6.47,2.84.6,1.95,5.52.46,7.25C643.85,367.42,653.47,369.53,645,373.47Z"/><path class="cls-3" d="M158.36,314.18c3.88,2.71,8.1,3.52,12.26,6.42-4.78-1.88-10.29,6.78-12.2,2.5C157.57,320.21,152.72,317.14,158.36,314.18Z"/><path class="cls-3" d="M555.42,101.92c-3.69-1.3-1.29-4.2-1.66-6.37,1.7-1.11,5.26-13.12,9.4-8.79C559.11,91.8,562.85,99.28,555.42,101.92Z"/><path class="cls-3" d="M503.06,67.74c-2,6.6-17.49-8-11.46-11.24,1.72-1,2.25.59,2.87,1.73C496.24,62.58,501.68,63.41,503.06,67.74Z"/><path class="cls-3" d="M198.36,389.48c6.61-2.19,11.58,8,4.89,10.67C199.73,400.32,191.83,390.76,198.36,389.48Z"/><path class="cls-2" d="M553.14,382.87c-4.56,9.31-7.16-1.67-9.32-5.84-1.34-1.74,4.37-5.78,5.54-3.34C551,376.69,551.25,380.25,553.14,382.87Z"/><path class="cls-2" d="M454.16,6.64a5.14,5.14,0,0,0,3,5c2.64,5.93-10.42,9.3-7.31,1.73.91-2.64-.08-4-2.41-5C447.64,4.64,451.57,5.23,454.16,6.64Z"/><path class="cls-2" d="M314,403.25c-2.72,6.54-8.29-10.68-12-12.12-1-1.87-6.13-5.07-4.33-6.88C306.65,383.81,307.39,398.64,314,403.25Z"/><path class="cls-3" d="M499.22,25.81c-.71-2.06,1.27-4.39-.64-6.33,2.28-6.66,15.22-5.87,6.6,1C503,22,504.21,27.39,499.22,25.81Z"/><path class="cls-2" d="M522.75,66.84c6.07,2-1.41,8.21-5.17,8.18-2.74-.48-8.34.81-9.4-2.31,0-1.69,1.66-2,2.9-2.08C515.85,71.33,518.64,67.84,522.75,66.84Z"/><path class="cls-2" d="M241.48,80.05l2,.7c0,3.25,5.49,3.87,4.16,7.1-1.15,2.84-5.38.55-7.6,2.58-3.46,3.14-4.38,1-4.75-2.3C238.41,85.92,241.93,84.78,241.48,80.05Z"/><path class="cls-2" d="M257.41,376.36c.91-4.44,7.78-5.6,6.1-11.36,2.82,1,5.55-3.31,7.78-1.39C270.88,369.79,264.47,376.35,257.41,376.36Z"/><path class="cls-2" d="M412.46,181.35c2.28-2,14.5-19.83,14.88-11.92C423.2,175.32,421,181.72,412.46,181.35Z"/><path class="cls-3" d="M606.62,379.88c3.25,10.34-11.81,4-9.48.3C599.09,375.24,603.15,380,606.62,379.88Z"/><path class="cls-3" d="M511.1,62.07c-.32,1.28,1.27,3.22-1.05,3.75-3.74.35-3.75-5.23-7.48-5.79-2.82-.78-2.5-5.08-.71-6.59,1.49-.76,1.42.84,1.87,1.57.78,1.26,1.28,2.8,3.21,2.64C508.5,59.33,508.23,62,511.1,62.07Z"/><path class="cls-2" d="M568.34,141.25c4.39.45,15.5,1.89,5.48,5.48C568.51,149.42,557.75,141.85,568.34,141.25Z"/><path class="cls-3" d="M195.09,398.75c1.68,0,8.63,7.39,8.39,8.85C201.68,414.77,188.72,400.29,195.09,398.75Z"/><path class="cls-2" d="M378.86,64.85,399.09,59a8.93,8.93,0,0,1-6.34,6C388.36,61.51,382.3,69.44,378.86,64.85Z"/><path class="cls-3" d="M526.15,322.2c5.66,10-4.27,12.58-7,19.61C512.7,337.78,528.06,335.88,526.15,322.2Z"/><path class="cls-3" d="M528.71,175.88c6-2.52,6.2-2.33,6,4.55-.14,4.64-1.52,5.54-6.33,4.11Z"/><path class="cls-2" d="M636.18,379.23c7.23-1.38,1.49,10.11-3,8.59C626,386.45,631.65,379.32,636.18,379.23Z"/><path class="cls-2" d="M224.42,118.56c-2.08-.21-4.64,3.59-5.75.73.21-5.13,10.72-4.44,13-9.63,4.33-.21,2.09,6.07-1.14,5.79C227.91,115.47,225.63,115.9,224.42,118.56Z"/><path class="cls-3" d="M501.07,151.14c-8.08,1.86-2.9-7.45-4.53-11.67-1.12-2.42,2-3.77,3.13-1.4C502.74,141.61,498.87,146.8,501.07,151.14Z"/><path class="cls-3" d="M352.58,31.36c6.95-1.6,1.95,7.59-.5,9.84C345.91,40.13,351.06,34.16,352.58,31.36Z"/><path class="cls-3" d="M394,320.6c3.31-5.7,7.77-10,14.22-12C406,314.33,395.48,316.08,395,325,392.26,324.05,393.8,322.17,394,320.6Z"/><path class="cls-3" d="M516.68,100.66c-1.08,3.6-5,4.93-6.51,8.21-3.34-.63-4-2-1.3-4.45C511.06,103.09,514.51,96,516.68,100.66Z"/><path class="cls-3" d="M376.66,12.13c-5.4-7.61,4.22-19.08,2.38-3.67A2.91,2.91,0,0,1,376.66,12.13Z"/><path class="cls-3" d="M521.7,164.43c.6,8.55-8.66,6.7-6.85,3.06C516,164.77,518.27,162.88,521.7,164.43Z"/><path class="cls-2" d="M207,141.24c3.91-3.86,10.42-2.69,13.4-7.89C225,139.67,211.75,143.93,207,141.24Z"/><path class="cls-3" d="M522.06,396.52c-9.17,17.67-13.7,12.18-1.55-1.44Z"/><path class="cls-2" d="M349.83,341c11.59,8.13,1.67,13.57,1.29,7.81C350.81,346.34,346.71,343,349.83,341Z"/><path class="cls-3" d="M523.79,185.52c-.66,3.75-.95,7.8-6.23,7.91C516,187.91,520.11,186.89,523.79,185.52Z"/><path class="cls-2" d="M410.34,6.57c-7,.61-1.2-5.81,3-4.86C420.3,1.65,415.16,8.16,410.34,6.57Z"/><path class="cls-3" d="M522.75,66.84c-4.82,1.76-3.31-5.71-7.61-6.62-.16-.83-.31-1.66-.47-2.5C520.1,58.34,521.91,62.16,522.75,66.84Z"/><path class="cls-2" d="M165.86,222.4c-.69-3.31,1.59-8.53,5-8.9C173.63,215.67,171.49,224.91,165.86,222.4Z"/><path class="cls-2" d="M472.21,149.84c-3.92-3.86,10.27-8.32,13.2-10C484.3,146.16,476.91,147.31,472.21,149.84Z"/><path class="cls-3" d="M613.57,303.31c-1.57,2.91-1.47,6.11-1.63,9.27C607.67,310.73,607.25,298,613.57,303.31Z"/><path class="cls-2" d="M279.08,56.14c3.8.33,7.92-6.93,10.7-3.12,1.28,3.9-4.68,3.15-6.5,5.29C280.62,60.55,279.21,58.57,279.08,56.14Z"/><path class="cls-2" d="M273.71,429.83c-2.87-.41-11.9-4.53-8.93-7.76,1.25-1.57,2.12-1,2.85.57C268.77,425.51,274.54,425.93,273.71,429.83Z"/><path class="cls-2" d="M267.54,81.71c-2.13.79-7.09-.81-9.05-3.22l0,0C269.29,71.94,262.94,74,267.54,81.71Z"/><path class="cls-3" d="M167.76,309.17c-.25-3.07.39-5.77-2-8.16.32-1.2-.43-2.89,1.08-3.53,1.71-.73,1.35,2.1,2.87,2C169.3,302.9,172.69,308.82,167.76,309.17Z"/><path class="cls-3" d="M240.33,434.15c-2.43-.1-9-.59-4.9-3.91C238.71,428.57,242.49,430.58,240.33,434.15Z"/><path class="cls-2" d="M626.12,108.35c-.13,8-10.94-5.26-5.78-5A11.76,11.76,0,0,1,626.12,108.35Z"/><path class="cls-2" d="M229.61,98.05c.49,4-6.25,5.88-6.08,1C222.92,94.68,229.57,92.49,229.61,98.05Z"/><path class="cls-3" d="M521.45,438.72c1.75-1.93,5.86-2.94,2.6-6.79-1.67,0-3.48-1.91-4.87-.49C517.44,433.8,520.94,436.29,521.45,438.72Z"/><path class="cls-2" d="M236,285.52c0,3.32-7.74,9.82-10,8.19C226.72,290.17,231.33,285.38,236,285.52Z"/><path class="cls-2" d="M472.69,13.83c-1.67-.62-4.61.89-5-2.33C467.84,5.36,485,13.46,472.69,13.83Z"/><path class="cls-3" d="M254.17,437.37c.74-3.23-5.24-5.2-6.51-2.08C246.94,438.23,253.07,440.06,254.17,437.37Z"/><path class="cls-2" d="M276.93,418.9c-.29,5.86-10.36-3.38-4.45-4.8C275.32,414.44,275.22,417.73,276.93,418.9Z"/><path class="cls-2" d="M237,76.92c.1,4.56-5.36,6.07-4.93,2.24C232.53,76.33,237.7,71.25,237,76.92Z"/><path class="cls-2" d="M514.67,57.72c1.4,2.84-1.55,3.71-3.78,4.23.73-2.62,0-3.76-2.84-2.83l-1.11-1.47C509.58,51.75,512.11,56.14,514.67,57.72Z"/><path class="cls-2" d="M819.42,219.66c-1.74,4.89-5,5-8.94,2.8C812.69,219.06,816.19,219.78,819.42,219.66Z"/><path class="cls-2" d="M255.05,63.53c-2.4,4.23-6.21,6.71-10.56,8.52C246.91,67.85,249.16,63.43,255.05,63.53Z"/><path class="cls-3" d="M353,17.55c-1.11,2.56-3.21,5.53-6,3C347.46,16.57,349.35,15.33,353,17.55Z"/><path class="cls-3" d="M568.5,166.55c0,2.23-.09,4.47-.13,6.71C563.16,173.18,563.36,162.76,568.5,166.55Z"/><path class="cls-2" d="M215.85,114.69a29.71,29.71,0,0,1-6.06,9.74C208.79,121.16,212.21,112,215.85,114.69Z"/><path class="cls-2" d="M505.18,20.47c2.06-2.86,6.05-2.8,6.66,1.24C511.27,25.42,505.86,23.21,505.18,20.47Z"/><path class="cls-3" d="M471.38,22.4c2.71-.08,3.29,4.45.34,4.34C468.82,27,468.52,22.81,471.38,22.4Z"/><path class="cls-2" d="M384.26,34.38c-3,1.1-5.9,2.82-9.78,2C376.47,33.64,385,29.12,384.26,34.38Z"/><path class="cls-3" d="M206.62,106.07c4,.05.41,5.75-1.78,6.1C201,111.75,203.49,105.87,206.62,106.07Z"/><path class="cls-3" d="M236.11,87.28c-1.48,1.71-5.06,1.43-5.3-1.4C230.9,82,236.45,84.15,236.11,87.28Z"/><path class="cls-2" d="M173.64,165.46c-.55,2.76-1.92,5.15-2.37,7.77C166.67,171.85,169.28,164.37,173.64,165.46Z"/><path class="cls-2" d="M626.5,128.56l-2.71.8c0-1.7-3.34-3-.67-4.94C627.33,122.05,626.9,126,626.5,128.56Z"/><path class="cls-2" d="M266.88,481.83c2.63-.15.66-5.68-1-6.81C263.34,476.06,264.66,481,266.88,481.83Z"/><path class="cls-3" d="M479.54,29.44c.09,2.59-2.45,5.19-3.61,1.59C475.39,28.55,478.4,27,479.54,29.44Z"/><path class="cls-3" d="M514.74,28.47c.26,4.09-6.35,6.59-5.26,1C510.58,26.27,512.63,27,514.74,28.47Z"/><path class="cls-3" d="M448.27,5.8a3,3,0,0,1-5.58,1.58C442.13,3.9,446.56,4.09,448.27,5.8Z"/><path class="cls-3" d="M273.91,429.74c.91.76,3.65-.39,2.64,2.29-1.63,2.59-6.08-.06-2.84-2.2Z"/><path class="cls-2" d="M423.67,64.43c1.74-1.11,7.2-1.36,4.26,1.71C425.83,67.69,424.29,67,423.67,64.43Z"/><path class="cls-2" d="M338.47,20c-5.31-1,4.57-5.45,6.69-1.89l0-.07C343,18.84,340.44,18.39,338.47,20Z"/><path class="cls-3" d="M195.4,122c1.12-3.27,1.19-5.59,3.67-6.51C202.73,116.86,198.51,120.69,195.4,122Z"/><path class="cls-2" d="M360.72,10c-.62,1.15-1.37,2.27-3,2.06C354.4,10.76,361.24,5.92,360.72,10Z"/><path class="cls-2" d="M716.45,223.48c-.27-4,3.85-1.77,4,1C718.67,225.56,717.54,223.11,716.45,223.48Z"/><path class="cls-2" d="M1.45,212.24c.82.3,1,1.53-.1,1.39C.78,213.32.9,212.61,1.45,212.24Z"/><path class="cls-2" d="M639.89,197.14l-3.32.33A2.46,2.46,0,0,1,639.89,197.14Z"/><path class="cls-2" d="M621.45,413.42l.64-1.18.49.47C622.23,413,621.65,413.14,621.45,413.42Z"/><path class="cls-2" d="M769.32,227.12c.35.08.46.22.33.58l-.6-.27Z"/><path class="cls-3" d="M238.8,455.51l-.25.33c-.28-.29-.78-.41-.31-.81Z"/><path class="cls-2" d="M490.7,459.94l-1.12.2c.09.57.19,1.14.28,1.72C490.78,461.5,490.37,460.55,490.7,459.94Z"/><path class="cls-2" d="M255.45,377.26l2-.92C257.15,377.44,256.73,378.29,255.45,377.26Z"/><path class="cls-2" d="M554.83,93.83c-.15.81-.17,1.73-1.36,1.74Z"/><path class="cls-3" d="M176.5,217a3.38,3.38,0,0,1,.94,2.84A3.4,3.4,0,0,1,176.5,217Z"/><path class="cls-2" d="M182.47,376.38l-.16.22S182.62,376.43,182.47,376.38Z"/><path class="cls-2" d="M600.42,424.37l.3-.23S600.46,424.51,600.42,424.37Z"/><path class="cls-3" d="M345.18,18l0,.07Z"/><path class="cls-3" d="M366.87,221c58.28,7.78,36.56,87.14-16.62,68.48-9.61-2.79,4.18,27.37-13.87,25.81-19.2-2.72-7.42-32.13-10.67-45.72C321.23,243.7,339.7,218.51,366.87,221ZM365,273.51c21.41-1.4,21.44-32.61-1.71-33.49C340.77,240.32,342.21,274.51,365,273.51Z"/><path class="cls-3" d="M612.73,254.8c-2.16,11.46,6.77,34.91-9.64,37.06-13.29.78-26.93,1.84-39.78-1.13-41.14-10.17-30.62-72.56,12.11-69.42,7.45-1.13,14.61,7.05,20.78-1.11C617.34,208.07,612.49,242.83,612.73,254.8Zm-20.62,1.36c0-22.05-35.33-19.92-34.84-.07C557.49,278.51,591.48,278.25,592.11,256.16Z"/><path class="cls-3" d="M313.11,255c-2,11.93,7,36.66-11.16,37.55-20.91,0-45.38,1.84-59.42-16.76-20.07-29.68,15.76-65.34,46.16-52.19,2.49.9,4.22,1.51,5.65-1.44,2.35-4.83,6.75-4.86,11.1-3.93,13.77,5.66,5.7,25.17,7.74,36.77ZM266,242.64c-19.62,10.5-1.25,38.24,16.69,28.64C304.67,258.3,286.37,234.21,266,242.64Z"/><path class="cls-3" d="M210,241.55c-20.1-11.14-26.7,5.67-.42,8.51,11.82,1.52,18.35,16.55,12.9,27.48-3.79,4.36,4.2,1.91,2.69,5.63-1.94,5.67-8.4.92-13.66,5.72-8.57,6.61-52.24,2-35.92-12.94,7.43-14.46,16,4.41,26.74-1.88,9.07-7.15-6.36-9.64-11.54-10.9-25.94-4.2-22.93-39.72,2.69-41.64,8.58-.78,23.64,1.18,26.39,9.4C216.35,234.26,214.51,239.14,210,241.55Z"/><path class="cls-1" d="M284.35,199.79c10.88,7.16,20.36-10.37,30.57-14.22a2.88,2.88,0,0,0,1.46-3.41c-3.15-2.92-3,1.84-3.06-5.71,15.2-.95,17.12-1.21,24.14-16,.2,1.7-1,4.74,2.84,2.87,3.08,3.1,3.29,9.52,8,10.12,3.51.78,3.41-3.11,1.05-4.5,3.76-7.32-7.07-15-5.45-21.72,7.93,2.92,14.95,10,23.58,12.5,2.78,4.41-6.12,5.39-9.08,7.52-7.27,1.81-2.88,6.74-4.94,12.22-4.2.36-13.08,2.19-7,7.15,3.59,3.09-1,5.29.26,7.76a49.08,49.08,0,0,0-15.93,10.54c-11.6-15.86-22.25-9.95-33.72,2.33-3.81,2.57-9-2.33-13.24,1-1,.69-1.41-.44-1.49-1.26C280.38,203.82,281.07,202,284.35,199.79Z"/><path class="cls-3" d="M330.81,204.91c12-16.92,40.16-9.63,36.32,11.55-3.63-3.91-1.11-11.63-8-5.51-2.3-10.55-16.09-13.73-21.42-3.73-1.33.65-1.31,1.73-.91,2.92.5,5.06-2.3,9.08-4.34,13.39-1.19-1.42-.26-3.85-2.65-4.24C330.59,214.53,328.53,209.57,330.81,204.91Z"/><path class="cls-1" d="M287.49,313.44c-1.42-8.48,12.3-4.46,6.18,1.42-.93,1.61-3.27,3.86-1.63,5.69.77.69,1.54.15,2.25-.25,4-2.71,5.24,2.32,8.89,3.07,9.85,3-1.19,8.12,4.16,11.36.8,1.32,3.4,1.68,2.72,3.69-6.47,7.31-17.73-11.66-30-7.44-.59-.2-.35,1.35-.34,2.12a3.67,3.67,0,0,1-3.11-3.66c3.65-.36,1.81-4.19,3.61-5.72,4.17,4.6,10,2.78,15.48,4.64-1.73-3.7-5.13-5.17-6.31-8.35.19-2.46,2.75-5.64-2-6.62Z"/><path class="cls-1" d="M367.35,114.16c3.46-7.66-9.78-7.08-14.11-10.1-12.6-3.94,26.26-6.63,26.52-4.45,1.41,5.77-10.66,8.67-3.29,13.79.17,2.72,3,6.24-1,7.88C370.49,123.12,370.37,116.44,367.35,114.16Z"/><path class="cls-1" d="M366.54,478.55c13.87,16.76,28.47-2.33,13.46-3.19-3.2,1.49-5.88,1.75-8.91-.06C369.3,473.87,365.47,476.73,366.54,478.55Z"/><path class="cls-1" d="M385.3,497.4c-2.1,3.91,4.93,8,7.3,5.07,4.34-4.58,6.74-14.7-1.21-15.28C386.53,490.21,383.11,489.2,385.3,497.4Z"/><path class="cls-1" d="M415.14,231.26c-1.52,3.74-6.07,7.67-9.93,6.61-2-1.56,2.28-3.94-.21-5.21-4.56-1.88-2.75-6.61-4.31-9.84-.92-1.9,1.07-3.76,2.91-4.64,3-1.37,2.7,3.26,4.58,4.13,8.91,1.39-2.65,11.58,4.05,9.21A2.58,2.58,0,0,1,415.14,231.26Z"/><path class="cls-1" d="M380.34,137.25c.59,3.61-4.55,10.39-7.68,5.68-1.36-4.33-8.19-10.68-1.57-13.43C375.58,124.71,380.49,132.46,380.34,137.25Z"/><path class="cls-1" d="M348.11,215.23c-2.57-1.38-5.59,2.39-7.13-.63-.81-2.17-1-4.54.7-6.6C350.43,198,366.33,217.16,348.11,215.23Z"/><path class="cls-1" d="M662.12,297.35c.56,4.51-.06,30-6.37,29.43-2.46-1.06-.28-2.76.47-4,.86-3.19,4.31-13.4-.86-13.49-3.58.74-3.23-4.75-.5-5.16C659.14,304,659.8,300.16,662.12,297.35Z"/><path class="cls-1" d="M624.85,363.05c-.13,5.11-2.48,11.88-8.38,12.41C610.5,369.1,622.93,352.22,624.85,363.05Z"/><path class="cls-1" d="M384.48,516.67c3.94,1.26,9.75,2.23,10-2.87.46-5.09-4.69-4.16-8-5-1.73-.37-4.19-1.43-4.5,1.07C381.7,512.17,381.22,515.39,384.48,516.67Z"/><path class="cls-3" d="M354.65,174.92c-4.18-8.73,9.56-8.41,13.86-12.74C374.44,170,358.74,171.27,354.65,174.92Z"/><path class="cls-1" d="M247.14,222.29c10.65,3.37-13,18.68-10.85,4.06C239.62,221.77,243.87,228.37,247.14,222.29Z"/><path class="cls-3" d="M376.47,113.4c-4.46-2.65-1.8-5.46.3-7.5,3.32-1.87,1.67-6.35,5-6.94C390.45,99.89,379.35,110.05,376.47,113.4Z"/><path class="cls-1" d="M278.51,191.92c1.31,6.27-9.35,7.91-8.78,1.41C268.56,186.5,278.63,184.09,278.51,191.92Z"/><path class="cls-1" d="M549.38,181.36c2.27,11-9.46,6.5-7.23-1C545.35,175.83,550.74,172,549.38,181.36Z"/><path class="cls-1" d="M359.14,211c6.89-6.12,4.36,1.61,8,5.51C366.67,227.63,358,217.94,359.14,211Z"/><path class="cls-1" d="M210,241.55c4.48-2.41,6.32-7.29,9.87-10.62,1.58-1.49-1.54-2.07-1.74-3.47,7.48,1.26,1,4.72.86,8.09C223.46,240.53,213.52,245.31,210,241.55Z"/><path class="cls-1" d="M559,465.5c4.67,4.63,10.2-3.89,13.06-7.35-2.1-4.48-8.63,5-12.88,4.52C557.67,463.1,557.23,464.48,559,465.5Z"/><path class="cls-1" d="M332.47,223.53c1.2-3.24,3.66-5.92,4.15-9.47,3.13,2.68,1.8,7.26,4.36,10.17C337.26,225.27,332.77,232,332.47,223.53Z"/><path class="cls-1" d="M762.09,267c1.28,2.12,2.93,4.06,3,6.72-5-.63-12,4.91-11.39-5C756,265.82,760.34,271.72,762.09,267Z"/><path class="cls-1" d="M498.11,296.34c-3.37,3.05-10.62,8.66-13.77,4-.81-2.08,1.6-1.49,2.33-2.3C489.77,294.67,493.32,294.12,498.11,296.34Z"/><path class="cls-1" d="M621.29,302.71c-.77-3.64-6.54-5.54-2.25-8.23,1.78-1.33,3.92-3.83,6.08-2.19C628.15,294.34,623,300.37,621.29,302.71Z"/><path class="cls-1" d="M490.54,284c-.12-19-.46-38.09.25-57.12C491.26,245.87,491.87,265,490.54,284Z"/><path class="cls-3" d="M357.61,503.14c3.26.31,6.63,2.77,10.25,1.68,1.63-4.66-4.89-2.34-6.61-4.72C359.46,498.72,354.28,500.47,357.61,503.14Z"/><path class="cls-1" d="M652.59,296.51l-5.7,15.75C644.62,307,647,300.18,652.59,296.51Z"/><path class="cls-1" d="M400.69,518.88c3.45.81,4.33-8.67.57-9C397.42,509.23,397.17,518.84,400.69,518.88Z"/><path class="cls-1" d="M617.87,307c3.84.66.9,5.3,2.76,7.84a1.54,1.54,0,0,1-1.44,2.12C615.21,317.07,616,309,617.87,307Z"/><path class="cls-1" d="M193.38,239.82c3-3.86,6.53-2.17,10-1.1C198.33,240.25,198.67,244.44,193.38,239.82Z"/><path class="cls-3" d="M365.69,471.82c.77-.06,2-1.83,1.38-3.23-3.34-2-6.74,2.93-10.05,5.09C360.82,474.44,363,472,365.69,471.82Z"/><path class="cls-1" d="M202.7,171.25c.65,3,3.94,6.25-.86,8.7C197.63,176.58,197.63,176.58,202.7,171.25Z"/><path class="cls-1" d="M350.2,302.45c3.5,1.52,3.65,7.68-.24,7.42C347.24,307.32,351.29,305.1,350.2,302.45Z"/><path class="cls-1" d="M465,210.32c-.23-4.21,1.22-7.4,4.64-10.24C470,204.09,469.71,204.64,465,210.32Z"/><path class="cls-1" d="M642.43,286.62c4-.65,4.08,3.34,6.05,5.1C644.61,292.2,642.53,290.59,642.43,286.62Z"/><path class="cls-1" d="M430.45,516.34c1.25-.25,2.62-.51,2.84-2.58C425,511,421.6,518,430.45,516.34Z"/><path class="cls-1" d="M747.7,221l-15.48,1.18C737.23,219.89,742.27,218,747.7,221Z"/><path class="cls-1" d="M412.53,516.87c2.25-.37,2.82-6.34,0-5.79C410.33,511.49,409.58,517.4,412.53,516.87Z"/><path class="cls-1" d="M239.54,300c-1.41,3.83-6.08,1.71-3.41-1.55,1.41-2.29.3-5.32,2.35-7.33C238.83,294.11,239.19,297.07,239.54,300Z"/><path class="cls-1" d="M473.23,492.74c1.6-1.33,4-1.39,5.17-3.33C470.37,487.34,466.83,495.15,473.23,492.74Z"/><path class="cls-1" d="M478.44,489.35l0,.06C478.47,489.4,478.51,489.41,478.44,489.35Z"/><path class="cls-1" d="M364.55,511.52c4.7.45,3.48-3.67-.55-3.14C359.38,507.7,360.52,512.29,364.55,511.52Z"/><path class="cls-1" d="M422.1,511.17c3,.31,5-3.82.71-3.4C420.34,507.36,418.64,511.6,422.1,511.17Z"/><path class="cls-1" d="M289.47,473.38c-.88-5.25-3.78-.61-5.62-1.15a4,4,0,0,0-1.65,3.85C284.64,475.23,286.7,473.35,289.47,473.38Z"/><path class="cls-1" d="M748.68,237.52a32.34,32.34,0,0,1-.13-10.11C749.92,230.76,751.74,234.11,748.68,237.52Z"/><path class="cls-1" d="M340.45,502.3c.73.64,1.87,1.29,2.29-.1-.17-2.73-5.13-1.84-7.15-2.74C335.14,502.79,338.71,500.41,340.45,502.3Z"/><path class="cls-1" d="M708.25,293.34c.15,2.34-3.36,1.7-3.41-.23C704.72,291,708.34,291.29,708.25,293.34Z"/><path class="cls-1" d="M422.35,229.46c-2.31,1.22-3.7,1.28-5.45,0C418.63,227.93,420,228.41,422.35,229.46Z"/><path class="cls-1" d="M761.48,248.48c-.24,3.27-.49,6.53-.73,9.8A15.13,15.13,0,0,1,761.48,248.48Z"/><path class="cls-1" d="M185.79,189.58c-.21,1.42-3,2.1-3,.3C182.77,188.32,185.62,187.93,185.79,189.58Z"/><path class="cls-1" d="M385.21,103.39A7.49,7.49,0,0,0,384,99.07C387,99.83,387.27,101.29,385.21,103.39Z"/><path class="cls-1" d="M766.19,289.15c-1.68.09-1.88-1.69-.56-2.12C767,286.89,767.21,288.51,766.19,289.15Z"/><path class="cls-1" d="M771.87,291.69c-.29,1.5-1.93,1.42-2.06.07C769.89,290.4,771.47,290.66,771.87,291.69Z"/><path class="cls-1" d="M415.45,264.92a1.79,1.79,0,0,1,.71,2.07C414.77,266.69,414.81,265.9,415.45,264.92Z"/><path class="cls-1" d="M336.81,210.14c-.4-1.19-.42-2.27.91-2.92C338.13,208.42,338.6,209.63,336.81,210.14Z"/><path class="cls-1" d="M359.87,498.06c-.92-.06-1.25.69-1.27,1.54C360.32,500.22,362.21,499,359.87,498.06Z"/><path class="cls-1" d="M329.82,219.29c1.71.28,1.81,1.62,1.95,2.93A2.25,2.25,0,0,1,329.82,219.29Z"/><path class="cls-1" d="M364.37,501c-.74-1.33-1.92-1.15-3.12-.89C362.09,501.1,363,501.72,364.37,501Z"/><path class="cls-1" d="M369.54,503.55c-.72-2.26-1.83-.16-1.68,1.27C368.78,504.87,369.51,504.53,369.54,503.55Z"/><path class="cls-1" d="M359.51,503.89a1.81,1.81,0,0,0-1.9-.75C357.83,504.44,358.31,505.07,359.51,503.89Z"/><path class="cls-1" d="M700.58,292c0,.41.26.85-.36.81C700.22,292.44,700,292,700.58,292Z"/><path class="cls-1" d="M197.87,303.51c0,1.26,0,2.53,0,3.8C196,306.07,195.87,304.8,197.87,303.51Z"/><path class="cls-1" d="M328.38,510.67c.33,0,.46-.22.37-.54l-.62.23C328.21,510.47,328.28,510.65,328.38,510.67Z"/><path class="cls-1" d="M282.25,476.07a1.39,1.39,0,0,0-1.72.34C281.22,476.9,281.81,476.86,282.25,476.07Z"/><polygon class="cls-1" points="710.52 293.11 710.22 292.91 710.55 292.77 710.52 293.11"/><polygon class="cls-1" points="462.59 214.13 462.28 213.94 462.62 213.8 462.59 214.13"/><path class="cls-1" d="M164.51,214.55a1.74,1.74,0,0,1-.74,1.84A1.51,1.51,0,0,1,164.51,214.55Z"/><polygon class="cls-1" points="375.58 215.75 375.57 216.1 375.25 215.93 375.58 215.75"/><path class="cls-1" d="M358,221.37l-1.07.08Z"/><path class="cls-1" d="M416.75,269.07c.13.31.43.61.1.9C416.74,269.66,416.51,269.38,416.75,269.07Z"/><path class="cls-1" d="M184.49,172.45a1.39,1.39,0,0,1,1.14-1.58C185.8,171.79,185.09,172.08,184.49,172.45Z"/><path class="cls-1" d="M353.49,179.45l.24.28S353.38,179.48,353.49,179.45Z"/><path class="cls-1" d="M748.61,225.59l0-1.3A.78.78,0,0,1,748.61,225.59Z"/><path class="cls-1" d="M382.33,98.86a.32.32,0,0,1-.54.1A.36.36,0,0,1,382.33,98.86Z"/><path class="cls-1" d="M305.36,343.62c-.48-.38-.79-.8-.27-1.37Z"/><path class="cls-1" d="M650.74,292.3l.15-.21C650.91,292.26,651,292.39,650.74,292.3Z"/><path class="cls-1" d="M282.63,311.16l-1,.56C281.66,311,281.93,310.71,282.63,311.16Z"/><path class="cls-2" d="M680.87,256c-2.8,32.13-51.57,13.47-29.07-11.8C661.17,237.55,682,241.94,680.87,256Z"/><path class="cls-2" d="M118.14,240.39c23.43-.38,23.25,31.77,1.73,32.49C97.87,273.64,95.87,240.06,118.14,240.39ZM116,268.44c-7.51-3.41-4.9-10.6-6.3-16.69C100.91,258.05,106.71,268,116,268.44Z"/><path class="cls-1" d="M80.89,258.85a7.44,7.44,0,0,1,.15-5.47A8.82,8.82,0,0,1,80.89,258.85Z"/><path class="cls-1" d="M81.51,249.49c-.81-1-.64-1.73.62-2.13A2,2,0,0,1,81.51,249.49Z"/><path class="cls-1" d="M81.67,265.28a3,3,0,0,1-.61-3.31A3.06,3.06,0,0,1,81.67,265.28Z"/><path class="cls-1" d="M82.24,267.46a1.87,1.87,0,0,1-.55-2A1.76,1.76,0,0,1,82.24,267.46Z"/><path class="cls-1" d="M140.83,219.2s.06.23.07.24Z"/><path class="cls-2" d="M783.82,249.15c13-24.85,48.55,5.72,23.83,21.47C793.26,279.83,778.14,262.41,783.82,249.15Z"/><path class="cls-1" d="M782.29,252.82c-1.09,5.2,3.41,8.93,3.63,13.79C781.64,262.82,780.36,258.24,782.29,252.82Z"/><path class="cls-1" d="M783.82,249.15a2.14,2.14,0,0,1-1.29,3C782.33,250.88,782.53,249.78,783.82,249.15Z"/><path class="cls-2" d="M452.92,240c23.07.65,21.05,34.46-1.21,33.45C429.8,272.54,430.9,239.3,452.92,240Z"/><path class="cls-2" d="M27.64,227.76c1.27-3.65-3.2-9.22,3-10.27,8.06-1.06,14.39,2.08,16,7.6C50.26,237.71,22.83,245,27.64,227.76Z"/><path class="cls-1" d="M137.52,217.47l-.16.8-.42-.23.55-.59Z"/><path class="cls-1" d="M564.47,84.53c.81-8.76,14.06-1.63,9.7,3.86-1.22,1.23-2.14,0-2.9-.77C569.46,85.77,567.21,83.62,564.47,84.53Z"/><path class="cls-1" d="M563.16,86.76c-1.71-1.5-.19-2.28,1.26-2.29Z"/><path class="cls-1" d="M627.27,144.27c.29-.92.88-.92,1.59-.52Z"/><path class="cls-1" d="M456.67,386.89c.3-4.76,7.41-.79,7,2.6C463.4,394.81,456.39,390.59,456.67,386.89Z"/><path class="cls-1" d="M464.1,351.68l1.45-.2Z"/><path class="cls-1" d="M464.48,366.4l-.19-.14S464.44,366.52,464.48,366.4Z"/><path class="cls-1" d="M452.33,139.72c3.3-10.31,16.42-4.74,24.28-4.84-.89,3.87-5.93-.39-5.7,4.46,0,2.8-3.1,3.48-5.15,4.73C461.81,140.74,455.31,144.37,452.33,139.72Z"/><path class="cls-1" d="M481.14,157.18a8.44,8.44,0,0,1,7.63.09A18.68,18.68,0,0,1,481.14,157.18Z"/><path class="cls-1" d="M452,135.36a3.93,3.93,0,0,1-.16,3.17A2.59,2.59,0,0,1,452,135.36Z"/><path class="cls-1" d="M471.06,156.89a3.39,3.39,0,0,1,3.81,0A5.38,5.38,0,0,1,471.06,156.89Z"/><path class="cls-1" d="M277.77,457.82c2.94,1.71,3.69-2.09,6.38-2.45,8.33-4.57-1.48-7.41-4.43-11.12-.52-1.14-3-.35-2.81,1.18C277.17,450.07,273.19,455.12,277.77,457.82Z"/><path class="cls-1" d="M284,465.22c-1.5-.59-2.18-.17-1.85,1.5Z"/><path class="cls-1" d="M287.28,462.42l-.61,2A1.86,1.86,0,0,0,287.28,462.42Z"/><path class="cls-1" d="M542.36,351.3c-2.88,13-8.76-4.41-10-8.76-1.2-2.12,1.11-2.82,2.42-3.57C540.75,336.89,540.28,348.26,542.36,351.3Z"/><path class="cls-1" d="M531.89,327.73c.06-4.64,1.84-6,6.21-4.06,2,.87,5.61-.31,5.67,2.46.05,2.38-3.57,2.37-5.52,3.4C533.25,332.17,531.83,331.61,531.89,327.73Z"/><path class="cls-1" d="M407.15,452.49c5.8-5.43,9-12.61-2.23-11.5,0,3.58,5.71,6.79.07,8.41C399.38,448.67,403.4,455.23,407.15,452.49Z"/><path class="cls-1" d="M386,444.45c2.13-3.14,6.35-3.74,8.45-6.92a32.72,32.72,0,0,1-13.26,0c.53,2.46-.93,4.29-2,6.24Z"/><path class="cls-3" d="M396.4,439.16c1-5-9.11,4-10.36,5.29C391.86,446.76,395.15,445,396.4,439.16Z"/><path class="cls-3" d="M379.24,443.81c1.06-1.95,2.52-3.78,2-6.24C376,436,374.65,446.38,379.24,443.81Z"/><path class="cls-1" d="M522.06,396.52c-2.94-1,1.28-8.46,3.31-7A9.82,9.82,0,0,1,522.06,396.52Z"/><path class="cls-1" d="M411.18,320.44c6.07-.23,6.48,8.65-.05,8.64C405.6,329.3,404.5,319.07,411.18,320.44Z"/><path class="cls-1" d="M415.44,315.6c-3.16.15-6.35-.56-9.87,1.65C408.62,312,409,312,415.44,315.6Z"/><path class="cls-1" d="M408.42,310.31c-.07-.57-.15-1.14-.23-1.7,2.51-.5,5-.84,8.17.82C413.34,311.08,410.87,310.63,408.42,310.31Z"/><polygon class="cls-1" points="401.97 319.16 402.11 319.57 401.73 319.52 401.97 319.16"/><path class="cls-1" d="M198.36,389.48l-.87.6Z"/><path class="cls-1" d="M182.07,342.55c-.15-.34-.31-.68-.47-1Z"/><path class="cls-1" d="M312.9,475.71c2.83,2.34,10.89.63,7.32-3.44-2.14-2.34-4.72-1-7.19.09C308.1,471.3,308.46,474.6,312.9,475.71Z"/><path class="cls-1" d="M300.23,460.22S300,460,300,460l-.26.22A.5.5,0,0,0,300.23,460.22Z"/><path class="cls-2" d="M349.38,168.94c2.36,1.38,2.45,5.28-1.05,4.5C342.89,172.6,344.52,168.71,349.38,168.94Z"/><path class="cls-1" d="M337.49,160.49c-.79-3-2.57-5.82-2-9.14a23.88,23.88,0,0,1,4.32,10.5l-2.38-1.4Z"/><path class="cls-2" d="M337.46,160.45c1.26.75,2.7,1.22,2.84,2.87C336.5,165.19,337.66,162.15,337.46,160.45Z"/><path class="cls-1" d="M310.8,175.15c-8.74,5.07-12,10.85-14.87-1.67a1.59,1.59,0,0,1-.91-1.95C303.86,168.35,309.53,161.17,310.8,175.15Z"/><path class="cls-1" d="M316.51,161.44c-.59-8.33,10.76-10.05,11.67-1.44C328.89,166.59,316.89,169.66,316.51,161.44Z"/><path class="cls-1" d="M301.54,41.32a1.83,1.83,0,0,1,2.8-.61Z"/><path class="cls-2" d="M313.47,181.19C326.42,180,292.6,202,289.54,202,278.78,200.48,310.59,185.89,313.47,181.19Z"/><path class="cls-2" d="M295.92,173.48c1.42.49,1.44,1.31.55,2.34C296.29,175,296.11,174.26,295.92,173.48Z"/><path class="cls-1" d="M551.77,48.78c2.55-.08,5.3,5.38,1.59,5.28C550.68,54.08,547.73,49.26,551.77,48.78Z"/><path class="cls-2" d="M417.32,115.12c-3,5.17-13.82,6.65-10.68-1.75C409.69,111.15,413.68,115.56,417.32,115.12Z"/><path class="cls-1" d="M426.69,104.7c-.13.67-1,1.8-1.63.86C425,104.65,426.21,103.93,426.69,104.7Z"/><path class="cls-1" d="M403.33,64.34c.59,5.13,6.88,2,10.16,2.14-5.54,3-11.94,2.94-18.7,6.32C397,67.78,400.55,66.44,403.33,64.34Z"/><path class="cls-1" d="M448.41,91.56c-.66.62-1.27.66-1.82-.16Z"/><path class="cls-1" d="M289.49,136.48l-.47-.65C289.2,136,289.3,136.4,289.49,136.48Z"/><path class="cls-1" d="M240.67,349.27c2.5-7.9,15.63,9.9,4.63,9a9.61,9.61,0,0,1-3.91-.17c-1.49-.27-3.59,1.78-4.33-.4s-.68-5,2.21-6.36c.54.81,0,3.12,1.65,2.18C244.45,352.35,246.06,347.63,240.67,349.27Z"/><path class="cls-2" d="M256.42,365.51c0,5.3-8.62,4.95-8.71.06C248.19,358.92,255.72,358.72,256.42,365.51Z"/><path class="cls-2" d="M240.67,349.27c8.61-2.51-1.1,9-1.4,2.11C239.74,350.68,240.21,350,240.67,349.27Z"/><path class="cls-1" d="M182,351.66c-.06,5.38-5.36,1.68-5-1.78C176.45,345.56,182.31,348.78,182,351.66Z"/><path class="cls-1" d="M201.79,327.82,200,330.44C193.32,325.88,198,318.65,201.79,327.82Z"/><path class="cls-1" d="M332.38,35c-4.79-.29-5.78-4.94-.12-4.56C335.83,29.89,336.38,35.89,332.38,35Z"/><path class="cls-1" d="M574.2,348.68c-.7,2,.91,5.71-2.2,5.67-3.2-.69-.66-9.12-2.91-12.26C567.18,334.49,574.94,336.89,574.2,348.68Z"/><path class="cls-1" d="M258.49,78.49c2.2,3,5.8,2.7,8.83,3.76-2.05,2.66-5.51,3.23-7.92,5.36C258.59,84.92,252.94,78.79,258.49,78.49Z"/><path class="cls-1" d="M176.79,167c.81-3.92,2.15-6.89,5.41-8.88C181.15,162.56,180.12,164.32,176.79,167Z"/><path class="cls-1" d="M171.46,172.53a2.06,2.06,0,0,1,.76-2.09A2,2,0,0,1,171.46,172.53Z"/><path class="cls-1" d="M183.49,165.46v0Z"/><path class="cls-2" d="M289.41,320c1.18,3.18,4.58,4.65,6.31,8.35-5.45-1.86-11.31,0-15.48-4.64C279.64,316.39,285.3,318.92,289.41,320Z"/><path class="cls-1" d="M287.42,313.39c2.47,4.67-4.2,1.25.07.05Z"/><path class="cls-1" d="M166.8,302.68c1.14.94,1,2.14.71,3.38C163.11,305.82,166.51,303.92,166.8,302.68Z"/><path class="cls-1" d="M508.05,59.12c2.82-.93,3.57.21,2.84,2.83C509.07,61.88,508.3,60.76,508.05,59.12Z"/><path class="cls-2" d="M365,273.51c-22.78,1-24.22-33.19-1.71-33.49C386.44,240.91,386.4,272.12,365,273.51Z"/><path class="cls-2" d="M592.11,256.16c-.63,22.09-34.62,22.35-34.84-.07C556.78,236.24,592.07,234.11,592.11,256.16Z"/><path class="cls-2" d="M276.38,242c39.91,4.72-3.31,55-18.29,18-6.07-13.23,18.73-25.57,15.24-11.09-7.17,19.94,15.69,24.55,8.9,14.14C276.66,256.76,282.58,247.85,276.38,242Z"/><path class="cls-1" d="M276.38,242c6.2,5.9.28,14.81,5.85,21.07,4.26,2.79-1,7.4-4.53,4.69-14.05-7.66,5.94-26.95-11.68-25.07C269.27,239.34,272.88,241.44,276.38,242Z"/><path class="cls-1" d="M116,268.44c-9.27-.43-15.07-10.39-6.3-16.69C111.08,257.84,108.47,265,116,268.44Z"/></g></g></svg>